<svg xmlns="http://www.w3.org/2000/svg" viewBox="0 0 500 500"><g id="freepik--Background--inject-58"><path d="M50.94,88.38c2.75.77,6.45-4,12.36-10.86A122.62,122.62,0,0,1,87.86,55.66c10.17-7,19-10.86,32.84-16.67,5.54-2.33,9.36-3.39,13.75-5.09.76-.29,1.76-.73,2-1.59s-.65-2.42-1.38-3.11c-4.44-4.12-11.12-4.93-16.66-5.17a63.49,63.49,0,0,0-18.61,2.32C75.9,32.58,56,50.53,49.41,76.72,47.77,83.22,47.73,87.48,50.94,88.38Z" style="fill:#37474f"></path><path d="M467,391c-2.71-.45-5.79,4.5-10.76,11.69a119,119,0,0,1-21.36,23.49c-9.06,7.76-17.13,12.35-29.84,19.34-5.08,2.8-8.64,4.2-12.69,6.28-.69.36-1.61.88-1.72,1.73s.87,2.26,1.64,2.84c4.68,3.51,11.18,3.61,16.52,3.28a61,61,0,0,0,17.63-4.13c22.28-8.4,39.56-27.66,43.24-53.48C470.57,395.61,470.18,391.51,467,391Z" style="fill:#37474f"></path><path d="M433.39,402.55c51.83-52.94,57.46-165.83-1.72-250.88-33.28-47.82-68.21-80.53-127-103.15-67.61-26-139.39-15.29-199.7,21.77C4.75,131.87,7.77,284.67,40.91,353c25.23,52,78.92,113.39,204.29,116.29C348,471.68,398.67,438,433.39,402.55Z" style="fill:#37474f"></path></g><g id="freepik--Shadow--inject-58"><path id="freepik--shadow--inject-58" d="M107,372.45c-18.33,1.75-15.07,11.51-3,18.69s21,4.73,34,11,11.82,20.59,35.37,27.29,46.27-7.52,32.28-16.44-32.8-15.59-44.15-21.83S132.36,370,107,372.45Z" style="opacity:0.1"></path></g><g id="freepik--Rocks--inject-58"><g id="freepik--rocks--inject-58"><polygon id="freepik--shadow--inject-58" points="339.4 367.86 355.55 373.29 360.54 382.71 373.37 381.79 372.63 383.94 378.98 392.88 388.06 395 392.82 401.45 408.83 400.77 411.33 395.11 420.75 393.71 434.74 380.64 420.92 374.71 421.29 371.81 442.15 362.66 436.05 351.13 416.09 343.99 399.72 334.91 348.35 343.39 327.08 357.04 339.4 367.86" style="opacity:0.1"></polygon><path d="M347.7,350.42c-4.89-2.4-12.07-18.32-8.05-33.91s11.05-28,12-41.2c.59,12.17-4.79,26-7.71,39.4s-1.67,22.54,4.82,30.23Z" style="fill:#263238"></path><path d="M317.74,351.51c-.15-.17-.3-.35-.44-.53a1.94,1.94,0,0,1-.54-1.12c0-.68.63-1.16,1.23-1.47a9.23,9.23,0,0,1,3.71-1c.73,0,1.74-.26,1.68-1a1.37,1.37,0,0,0-.18-.5,10.49,10.49,0,0,1-1-6.72c.14-.77.47-1.65,1.23-1.88a2.34,2.34,0,0,1,1.28.07,30.73,30.73,0,0,1,4.92,1.69,24.15,24.15,0,0,1,.28-9.58c.29-1.25.79-2.6,1.94-3.14,1.6-.73,3.37.48,4.7,1.62l2.8,2.41a21.87,21.87,0,0,1,3.89-6.09,2.82,2.82,0,0,1,2.18-1.21c1.21.11,1.76,1.53,2.06,2.7.39,1.52.77,3.05,1.15,4.57a16.82,16.82,0,0,1,6.71-2.6,3.19,3.19,0,0,1,2.59.41,3.35,3.35,0,0,1,.86,1.44,17.42,17.42,0,0,1,1.4,4.41,6.84,6.84,0,0,1,8.85,2.76,8.54,8.54,0,0,1-1.42,9.59,11.82,11.82,0,0,1-9.38,3.53,3.94,3.94,0,0,1,.87,4.62,7.49,7.49,0,0,1-3.62,3.4,14.42,14.42,0,0,1-17.24-3.84c.55.7-4.45,2.52-4.94,2.59C327.59,357.46,321.64,355.92,317.74,351.51Z" style="fill:#263238"></path><g id="freepik--Rock--inject-58"><polygon points="381.25 313.48 358.71 328.77 351.15 339.72 365.97 341.71 384.89 350.21 389.68 338.26 380.97 326.56 381.25 313.48" style="fill:#BA68C8"></polygon><polygon points="381.25 313.48 358.71 328.77 351.15 339.72 365.97 341.71 384.89 350.21 389.68 338.26 380.97 326.56 381.25 313.48" style="opacity:0.30000000000000004"></polygon><polygon points="381.25 313.48 395.12 313.83 398.23 327.83 389.68 338.26 380.97 326.56 381.25 313.48" style="fill:#BA68C8"></polygon><polygon points="381.25 313.48 395.12 313.83 398.23 327.83 389.68 338.26 380.97 326.56 381.25 313.48" style="opacity:0.35000000000000003"></polygon><polygon points="415.45 328.64 417.48 339.6 407.43 336.51 395.48 342.88 390.18 349.69 386.15 362.98 382.18 381.61 376.05 365.71 384.89 350.21 393.67 340.07 406.68 335.32 415.45 328.64" style="fill:#BA68C8"></polygon><polygon points="403.27 370.72 420.06 356.16 412.66 343.38 403.27 370.72" style="fill:#BA68C8"></polygon><g style="opacity:0.5"><polygon points="415.45 328.64 417.48 339.6 407.43 336.51 395.48 342.88 390.18 349.69 386.15 362.98 382.18 381.61 376.05 365.71 384.89 350.21 393.67 340.07 406.68 335.32 415.45 328.64"></polygon><polygon points="403.27 370.72 420.06 356.16 412.66 343.38 403.27 370.72"></polygon></g><polygon points="368.1 322.4 359.98 332.09 358.16 337.46 366.36 337.74 384.89 350.21 365.97 341.71 351.15 339.72 358.71 328.77 368.1 322.4" style="fill:#BA68C8"></polygon><polygon points="395.12 313.83 395.03 327.2 387.42 335.23 389.68 338.26 398.23 327.83 395.12 313.83" style="fill:#BA68C8"></polygon><polygon points="376.05 365.71 365.5 363.93 343.96 357.57 330.25 347.77 335.03 340.42 343.06 338.95 336.59 341.95 335.69 347.07 343.15 352.62 374.81 362.69 384.89 350.21 376.05 365.71" style="fill:#BA68C8"></polygon><g style="opacity:0.25"><polygon points="368.1 322.4 359.98 332.09 358.16 337.46 366.36 337.74 384.89 350.21 365.97 341.71 351.15 339.72 358.71 328.77 368.1 322.4"></polygon><polygon points="395.12 313.83 395.03 327.2 387.42 335.23 389.68 338.26 398.23 327.83 395.12 313.83"></polygon><polygon points="376.05 365.71 365.5 363.93 343.96 357.57 330.25 347.77 335.03 340.42 343.06 338.95 336.59 341.95 335.69 347.07 343.15 352.62 374.81 362.69 384.89 350.21 376.05 365.71"></polygon></g><polygon points="358.71 328.77 343.06 338.95 336.59 341.95 335.69 347.07 343.15 352.62 374.81 362.69 377.66 359.16 366.57 349.36 358.47 350.16 351.15 339.72 358.71 328.77" style="fill:#BA68C8"></polygon><polygon points="358.71 328.77 343.06 338.95 336.59 341.95 335.69 347.07 343.15 352.62 374.81 362.69 377.66 359.16 366.57 349.36 358.47 350.16 351.15 339.72 358.71 328.77" style="opacity:0.35000000000000003"></polygon><polygon points="395.12 313.83 415.45 328.64 406.68 335.32 393.67 340.07 384.89 350.21 389.68 338.26 398.23 327.83 395.12 313.83" style="fill:#BA68C8"></polygon><polygon points="407.43 336.51 395.48 342.88 390.18 349.69 386.15 362.98 390.03 375.17 403.27 370.72 412.66 343.38 407.43 336.51" style="fill:#BA68C8"></polygon><polygon points="351.15 339.72 358.47 350.16 366.57 349.36 365.97 341.71 351.15 339.72" style="fill:#BA68C8"></polygon><polygon points="340.95 365.26 347.7 366.79 350.94 363.01 365.5 363.93 343.96 357.57 340.95 365.26" style="fill:#BA68C8"></polygon><g style="opacity:0.45"><polygon points="395.12 313.83 415.45 328.64 406.68 335.32 393.67 340.07 384.89 350.21 389.68 338.26 398.23 327.83 395.12 313.83"></polygon><polygon points="407.43 336.51 395.48 342.88 390.18 349.69 386.15 362.98 390.03 375.17 403.27 370.72 412.66 343.38 407.43 336.51"></polygon><polygon points="351.15 339.72 358.47 350.16 366.57 349.36 365.97 341.71 351.15 339.72"></polygon><polygon points="340.95 365.26 347.7 366.79 350.94 363.01 365.5 363.93 343.96 357.57 340.95 365.26"></polygon></g><polygon points="371.64 364.96 365.5 363.93 359.75 370.94 365.86 378.67 371.64 364.96" style="fill:#BA68C8"></polygon><polygon points="371.64 364.96 365.5 363.93 359.75 370.94 365.86 378.67 371.64 364.96" style="opacity:0.35000000000000003"></polygon><polygon points="417.48 339.6 425.59 350.11 420.06 356.16 412.66 343.38 407.43 336.51 417.48 339.6" style="fill:#BA68C8"></polygon><polygon points="382.18 381.61 390.03 375.17 386.15 362.98 382.18 381.61" style="fill:#BA68C8"></polygon><polygon points="384.89 350.21 377.66 359.16 366.57 349.36 365.97 341.71 384.89 350.21" style="fill:#BA68C8"></polygon><polygon points="330.25 347.77 327.08 357.04 340.95 365.26 343.96 357.57 330.25 347.77" style="fill:#BA68C8"></polygon><polygon points="382.18 381.61 365.86 378.67 371.64 364.96 376.05 365.71 382.18 381.61" style="fill:#BA68C8"></polygon><polygon points="347.7 366.79 359.75 370.94 365.5 363.93 350.94 363.01 347.7 366.79" style="fill:#BA68C8"></polygon><g style="opacity:0.4"><polygon points="417.48 339.6 425.59 350.11 420.06 356.16 412.66 343.38 407.43 336.51 417.48 339.6"></polygon><polygon points="382.18 381.61 390.03 375.17 386.15 362.98 382.18 381.61"></polygon><polygon points="384.89 350.21 377.66 359.16 366.57 349.36 365.97 341.71 384.89 350.21"></polygon><polygon points="330.25 347.77 327.08 357.04 340.95 365.26 343.96 357.57 330.25 347.77"></polygon><polygon points="382.18 381.61 365.86 378.67 371.64 364.96 376.05 365.71 382.18 381.61"></polygon><polygon points="347.7 366.79 359.75 370.94 365.5 363.93 350.94 363.01 347.7 366.79"></polygon></g><polygon points="417.48 339.6 415.45 328.64 395.12 313.83 381.25 313.48 358.71 328.77 343.06 338.95 335.03 340.42 330.25 347.77 327.08 357.04 340.95 365.26 347.7 366.79 359.75 370.94 365.86 378.67 382.18 381.61 390.03 375.17 403.27 370.72 420.06 356.16 425.59 350.11 417.48 339.6" style="opacity:0.35000000000000003"></polygon></g><path d="M418.47,372.53s21.81-21,20.69-46.56c0,0-2,21.34-23.71,38.9a105.78,105.78,0,0,0,8.37-36.1c1.3-22.79-3.76-36.33-8.73-42.15,5.34,12.32,6.09,27.27,3.92,43.44-2.32,17.23-8.92,30.09-19.69,42.59Z" style="fill:#263238"></path><g id="freepik--rock--inject-58"><polygon points="402.46 359.95 390.05 368.38 385.88 374.41 394.04 375.5 404.46 380.18 407.1 373.6 402.3 367.16 402.46 359.95" style="fill:#BA68C8"></polygon><polygon points="402.46 359.95 390.05 368.38 385.88 374.41 394.04 375.5 404.46 380.18 407.1 373.6 402.3 367.16 402.46 359.95" style="opacity:0.30000000000000004"></polygon><polygon points="402.46 359.95 410.09 360.15 411.81 367.86 407.1 373.6 402.3 367.16 402.46 359.95" style="fill:#BA68C8"></polygon><polygon points="402.46 359.95 410.09 360.15 411.81 367.86 407.1 373.6 402.3 367.16 402.46 359.95" style="opacity:0.35000000000000003"></polygon><polygon points="421.29 368.3 422.4 374.34 416.87 372.63 410.29 376.14 407.37 379.89 405.16 387.21 402.97 397.47 399.59 388.71 404.46 380.18 409.3 374.6 416.46 371.98 421.29 368.3" style="fill:#BA68C8"></polygon><polygon points="414.58 391.47 423.82 383.46 419.75 376.42 414.58 391.47" style="fill:#BA68C8"></polygon><g style="opacity:0.5"><polygon points="421.29 368.3 422.4 374.34 416.87 372.63 410.29 376.14 407.37 379.89 405.16 387.21 402.97 397.47 399.59 388.71 404.46 380.18 409.3 374.6 416.46 371.98 421.29 368.3"></polygon><polygon points="414.58 391.47 423.82 383.46 419.75 376.42 414.58 391.47"></polygon></g><polygon points="395.21 364.87 390.75 370.2 389.74 373.16 394.26 373.32 404.46 380.18 394.04 375.5 385.88 374.41 390.05 368.38 395.21 364.87" style="fill:#BA68C8"></polygon><polygon points="410.09 360.15 410.04 367.51 405.85 371.93 407.1 373.6 411.81 367.86 410.09 360.15" style="fill:#BA68C8"></polygon><polygon points="399.59 388.71 393.78 387.73 381.93 384.23 374.38 378.83 377.01 374.79 381.43 373.98 377.87 375.63 377.37 378.45 381.48 381.51 398.91 387.05 404.46 380.18 399.59 388.71" style="fill:#BA68C8"></polygon><g style="opacity:0.25"><polygon points="395.21 364.87 390.75 370.2 389.74 373.16 394.26 373.32 404.46 380.18 394.04 375.5 385.88 374.41 390.05 368.38 395.21 364.87"></polygon><polygon points="410.09 360.15 410.04 367.51 405.85 371.93 407.1 373.6 411.81 367.86 410.09 360.15"></polygon><polygon points="399.59 388.71 393.78 387.73 381.93 384.23 374.38 378.83 377.01 374.79 381.43 373.98 377.87 375.63 377.37 378.45 381.48 381.51 398.91 387.05 404.46 380.18 399.59 388.71"></polygon></g><polygon points="390.05 368.38 381.43 373.98 377.87 375.63 377.37 378.45 381.48 381.51 398.91 387.05 400.48 385.11 394.37 379.71 389.92 380.15 385.88 374.41 390.05 368.38" style="fill:#BA68C8"></polygon><polygon points="390.05 368.38 381.43 373.98 377.87 375.63 377.37 378.45 381.48 381.51 398.91 387.05 400.48 385.11 394.37 379.71 389.92 380.15 385.88 374.41 390.05 368.38" style="opacity:0.35000000000000003"></polygon><polygon points="410.09 360.15 421.29 368.3 416.46 371.98 409.3 374.6 404.46 380.18 407.1 373.6 411.81 367.86 410.09 360.15" style="fill:#BA68C8"></polygon><polygon points="416.87 372.63 410.29 376.14 407.37 379.89 405.16 387.21 407.29 393.92 414.58 391.47 419.75 376.42 416.87 372.63" style="fill:#BA68C8"></polygon><polygon points="385.88 374.41 389.92 380.15 394.37 379.71 394.04 375.5 385.88 374.41" style="fill:#BA68C8"></polygon><polygon points="380.27 388.46 383.99 389.31 385.77 387.23 393.78 387.73 381.93 384.23 380.27 388.46" style="fill:#BA68C8"></polygon><g style="opacity:0.45"><polygon points="410.09 360.15 421.29 368.3 416.46 371.98 409.3 374.6 404.46 380.18 407.1 373.6 411.81 367.86 410.09 360.15"></polygon><polygon points="416.87 372.63 410.29 376.14 407.37 379.89 405.16 387.21 407.29 393.92 414.58 391.47 419.75 376.42 416.87 372.63"></polygon><polygon points="385.88 374.41 389.92 380.15 394.37 379.71 394.04 375.5 385.88 374.41"></polygon><polygon points="380.27 388.46 383.99 389.31 385.77 387.23 393.78 387.73 381.93 384.23 380.27 388.46"></polygon></g><polygon points="397.16 388.3 393.78 387.73 390.62 391.59 393.98 395.85 397.16 388.3" style="fill:#BA68C8"></polygon><polygon points="397.16 388.3 393.78 387.73 390.62 391.59 393.98 395.85 397.16 388.3" style="opacity:0.35000000000000003"></polygon><polygon points="422.4 374.34 426.87 380.13 423.82 383.46 419.75 376.42 416.87 372.63 422.4 374.34" style="fill:#BA68C8"></polygon><polygon points="402.97 397.47 407.29 393.92 405.16 387.21 402.97 397.47" style="fill:#BA68C8"></polygon><polygon points="404.46 380.18 400.48 385.11 394.37 379.71 394.04 375.5 404.46 380.18" style="fill:#BA68C8"></polygon><polygon points="374.38 378.83 372.63 383.94 380.27 388.46 381.93 384.23 374.38 378.83" style="fill:#BA68C8"></polygon><polygon points="402.97 397.47 393.98 395.85 397.16 388.3 399.59 388.71 402.97 397.47" style="fill:#BA68C8"></polygon><polygon points="383.99 389.31 390.62 391.59 393.78 387.73 385.77 387.23 383.99 389.31" style="fill:#BA68C8"></polygon><g style="opacity:0.4"><polygon points="422.4 374.34 426.87 380.13 423.82 383.46 419.75 376.42 416.87 372.63 422.4 374.34"></polygon><polygon points="402.97 397.47 407.29 393.92 405.16 387.21 402.97 397.47"></polygon><polygon points="404.46 380.18 400.48 385.11 394.37 379.71 394.04 375.5 404.46 380.18"></polygon><polygon points="374.38 378.83 372.63 383.94 380.27 388.46 381.93 384.23 374.38 378.83"></polygon><polygon points="402.97 397.47 393.98 395.85 397.16 388.3 399.59 388.71 402.97 397.47"></polygon><polygon points="383.99 389.31 390.62 391.59 393.78 387.73 385.77 387.23 383.99 389.31"></polygon></g><polygon points="422.4 374.34 421.29 368.3 410.09 360.15 402.46 359.95 390.05 368.38 381.43 373.98 377.01 374.79 374.38 378.83 372.63 383.94 380.27 388.46 383.99 389.31 390.62 391.59 393.98 395.85 402.97 397.47 407.29 393.92 414.58 391.47 423.82 383.46 426.87 380.13 422.4 374.34" style="opacity:0.2"></polygon></g></g></g><g id="freepik--Tracks--inject-58"><g id="freepik--animal-tracks--inject-58"><path d="M351,420.11c1.11,2.29-1.5,5-5.94,4.74-.95,0-1.87-.24-2.83-.29-2.6-.13-5.28.86-7.74.33a6.55,6.55,0,0,1-3.67-2.45c-.87-1-1.75-2.1-1.17-3.16s2.42-1.69,3.62-2.55c.57-.42,1-.89,1.58-1.29a16.5,16.5,0,0,1,5.24-1.87,16.91,16.91,0,0,1,4.29-.64,7.92,7.92,0,0,1,4.28,1.23,3.2,3.2,0,0,1,1.57,2.64,6.51,6.51,0,0,0-.07,1.76A10.65,10.65,0,0,0,351,420.11Z" style="fill:#263238"></path><path d="M368.62,427.88l-4.35-.39a16.87,16.87,0,0,1-8-2.48,3.81,3.81,0,0,1-1.26-1.39c-.61-1.26,1.11-2.36,3.34-2.17a12.21,12.21,0,0,1,2.39.5c3.16.92,5.42,2.28,6.34,4.33C367.36,426.86,368.12,427.36,368.62,427.88Z" style="fill:#263238"></path><path d="M360.44,432.59c-1.57-.14-3.25-.21-4.87-.45a14.58,14.58,0,0,1-6.41-2.19,4.41,4.41,0,0,1-1.42-1.6c-.72-1.48,1.26-2.59,3.83-2.16a12,12,0,0,1,2.23.59c2.82,1,5,2.33,5.54,4.35C359.49,431.66,360.09,432.15,360.44,432.59Z" style="fill:#263238"></path><path d="M366.66,418.72a15.3,15.3,0,0,0-1.64-.13,12,12,0,0,0-2.1.18,15.24,15.24,0,0,1-8.79-.86c-1.71-.69-2-1.29-1-2.36a2.69,2.69,0,0,1,1.1-.62,9.83,9.83,0,0,1,4.59-.31,14.87,14.87,0,0,1,8,4Z" style="fill:#263238"></path><path d="M346.86,433.93a17.18,17.18,0,0,1-3.2-1,36.26,36.26,0,0,1-4.75-3.24,3,3,0,0,1-1.08-2c-.15-1.45,1.75-2.13,4-1.51a5.05,5.05,0,0,1,3,1.78,11.79,11.79,0,0,1,1.12,1.88,1.62,1.62,0,0,1,0,1.51c-.7,1-.22,1.74,1.06,2.43Z" style="fill:#263238"></path><path d="M294.86,381.73c1.32,2.25-1.05,5-5.49,4.92-1,0-1.9-.19-2.86-.21-2.62-.05-5.2,1-7.7.57a7.06,7.06,0,0,1-3.89-2.33c-1-1-1.94-2.05-1.46-3.13s2.26-1.75,3.38-2.66c.53-.42.92-.91,1.46-1.33a15.48,15.48,0,0,1,5.06-2,16.75,16.75,0,0,1,4.23-.77,8.31,8.31,0,0,1,4.39,1.1,3.46,3.46,0,0,1,1.8,2.59,6.11,6.11,0,0,0,.1,1.76A10.57,10.57,0,0,0,294.86,381.73Z" style="fill:#263238"></path><path d="M313.15,389l-4.39-.26a17.61,17.61,0,0,1-8.2-2.23,4.1,4.1,0,0,1-1.39-1.35c-.72-1.24.89-2.39,3.14-2.27a14,14,0,0,1,2.44.42c3.23.83,5.61,2.12,6.73,4.14A8.09,8.09,0,0,0,313.15,389Z" style="fill:#263238"></path><path d="M305.41,393.9c-1.58-.09-3.26-.11-4.9-.29a15.49,15.49,0,0,1-6.61-2,4.9,4.9,0,0,1-1.56-1.55c-.86-1.46,1-2.62,3.63-2.28a12.73,12.73,0,0,1,2.27.53c2.92.93,5.18,2.17,5.93,4.16C304.37,393,305,393.47,305.41,393.9Z" style="fill:#263238"></path><path d="M310.34,379.86c-.55,0-1.1-.1-1.65-.08a12.6,12.6,0,0,0-2.07.24,15.42,15.42,0,0,1-8.86-.58c-1.77-.64-2.08-1.23-1.18-2.33a2.48,2.48,0,0,1,1-.65,9.52,9.52,0,0,1,4.56-.45,16,16,0,0,1,8.33,3.72Z" style="fill:#263238"></path><path d="M292,395.66a18.59,18.59,0,0,1-3.29-.93,39.24,39.24,0,0,1-5.05-3.1,3.19,3.19,0,0,1-1.26-1.93c-.28-1.44,1.55-2.18,3.86-1.63a5.43,5.43,0,0,1,3.2,1.68,13,13,0,0,1,1.3,1.85,1.63,1.63,0,0,1,.17,1.5c-.61,1-.06,1.75,1.27,2.4Z" style="fill:#263238"></path><path d="M279.69,422c.09,2.37-3.59,4.59-7.79,3.74-.91-.18-1.71-.51-2.62-.69-2.46-.5-5.48.08-7.64-.78a4.4,4.4,0,0,1-2.51-2.9c-.41-1.08-.79-2.29.23-3.24s3.07-1.28,4.61-1.95c.72-.32,1.34-.71,2.08-1a20.29,20.29,0,0,1,5.88-1.06,18.76,18.76,0,0,1,4.43,0A6,6,0,0,1,280,415.9a2.52,2.52,0,0,1,.38,2.78,7.8,7.8,0,0,0-.82,1.7A8.08,8.08,0,0,0,279.69,422Z" style="fill:#263238"></path><path d="M293.41,432l-4.06-1c-2.93-.73-5.26-1.87-6.67-3.55a2.63,2.63,0,0,1-.63-1.53c-.05-1.3,2.09-2.12,4.17-1.61a9.45,9.45,0,0,1,2.11.82c2.66,1.35,4.26,3,4.28,5.1C292.62,430.87,293.14,431.47,293.41,432Z" style="fill:#263238"></path><path d="M283.46,435.44c-1.46-.36-3.06-.68-4.53-1.13a10.7,10.7,0,0,1-5.27-3.05,3.09,3.09,0,0,1-.69-1.75c-.06-1.54,2.33-2.33,4.64-1.55a9.81,9.81,0,0,1,1.9.89c2.3,1.4,3.82,3,3.51,5C282.93,434.39,283.31,435,283.46,435.44Z" style="fill:#263238"></path><path d="M295.43,422.89a13.12,13.12,0,0,0-1.53-.37,13.51,13.51,0,0,0-2.11-.12,13.13,13.13,0,0,1-8.15-2.09c-1.36-.92-1.34-1.53.09-2.43a4.08,4.08,0,0,1,1.33-.44,9.76,9.76,0,0,1,4.58.36,10.17,10.17,0,0,1,6,5Z" style="fill:#263238"></path><path d="M269.73,434.79a13,13,0,0,1-2.66-1.45,24.06,24.06,0,0,1-3.22-3.83,2.38,2.38,0,0,1-.2-2.06c.48-1.43,2.61-1.81,4.54-.89,1.16.56,2,1.25,2.18,2.16a9,9,0,0,1,.28,2,1.92,1.92,0,0,1-.62,1.47c-1.11.86-1,1.65,0,2.5Z" style="fill:#263238"></path><path d="M223.56,381.87c.09,2.38-3.6,4.6-7.79,3.75-.91-.18-1.71-.51-2.62-.69-2.47-.5-5.49.07-7.64-.79a4.37,4.37,0,0,1-2.51-2.89c-.41-1.08-.79-2.3.22-3.24s3.07-1.28,4.61-1.95c.73-.32,1.35-.71,2.08-1a20.41,20.41,0,0,1,5.88-1.06,17.75,17.75,0,0,1,4.43,0,6,6,0,0,1,3.62,1.8,2.56,2.56,0,0,1,.39,2.79,7,7,0,0,0-.82,1.7A7.37,7.37,0,0,0,223.56,381.87Z" style="fill:#263238"></path><path d="M237.27,391.92l-4.05-1c-2.93-.74-5.27-1.87-6.67-3.55a2.57,2.57,0,0,1-.63-1.53c0-1.3,2.09-2.12,4.17-1.62a10.18,10.18,0,0,1,2.11.82c2.66,1.35,4.26,3,4.28,5.11C236.48,390.75,237,391.35,237.27,391.92Z" style="fill:#263238"></path><path d="M227.32,395.31c-1.45-.35-3-.67-4.52-1.13a10.62,10.62,0,0,1-5.27-3,3.12,3.12,0,0,1-.69-1.76c-.06-1.53,2.33-2.32,4.64-1.54a9.25,9.25,0,0,1,1.9.89c2.3,1.4,3.82,3,3.5,5C226.8,394.27,227.18,394.83,227.32,395.31Z" style="fill:#263238"></path><path d="M239.3,382.77a13.12,13.12,0,0,0-1.53-.37,13.51,13.51,0,0,0-2.11-.13,13.2,13.2,0,0,1-8.15-2.08c-1.36-.92-1.35-1.54.08-2.43a3.93,3.93,0,0,1,1.33-.44,9.74,9.74,0,0,1,4.58.36,10.2,10.2,0,0,1,6,5Z" style="fill:#263238"></path><path d="M213.59,394.67a12.76,12.76,0,0,1-2.66-1.46,24,24,0,0,1-3.21-3.82,2.38,2.38,0,0,1-.2-2.06c.48-1.43,2.61-1.82,4.53-.89,1.17.56,2,1.25,2.18,2.16a9,9,0,0,1,.29,2,1.92,1.92,0,0,1-.62,1.47c-1.11.86-1,1.65,0,2.5Z" style="fill:#263238"></path></g></g><g id="freepik--Character--inject-58"><g id="freepik--character--inject-58"><circle id="freepik--Light--inject-58" cx="240.82" cy="202.73" r="117.08" transform="translate(-72.82 229.66) rotate(-45)" style="fill:#BA68C8;opacity:0.1"></circle><g id="freepik--Bottom--inject-58"><circle id="freepik--light--inject-58" cx="240.82" cy="202.73" r="66.59" transform="translate(-72.82 229.66) rotate(-45)" style="fill:#BA68C8;opacity:0.1"></circle><path d="M183.12,226.38s2.49,14,4.95,35.54c2.09,18.36.66,23.78-6.22,35.86-5.62,9.86-26.17,40-32.9,48.18-2.22,2.71-1.23,5.11-4.62,5.51,0,0-9.91,1-15.15-7-1.56-2.83-.27-3.84,1.12-7.18,2.14-5.1,4.59-12.77,7.61-21.07a230.35,230.35,0,0,1,10.59-24.16l-15.86-53.58Z" style="fill:#455a64"></path><path d="M148.5,292.05s-4.08,7.83-8.13,17.81c.58,1.22,1.25,2.54,1.32,2.78.38,1.25-.92,13.06,2.51,27.3.58,2.41,1.5,6.69,2.65,10.08.6-1,.81-2.49,2.1-4.06,2.49-3,6.86-9.06,11.67-15.94,3-5.27,6.06-10.61,9.08-15.17-.36-7.46-.7-13-.92-14.3-.86-5-9.14-41.77-9.14-41.77s16.93-10.19,19.23-25.93l-46.23,5.62h0Z" style="fill:#37474f"></path><path d="M176.75,243.07a23.43,23.43,0,0,1-3.39,7.71,19.91,19.91,0,0,1-7.66,6.46s5.48,32.32,6.47,38.44c1.17,7.27-.21,17.69-.21,17.69L161.55,256Z" style="fill:#37474f"></path><path d="M120.22,363.94c-.74-.09-1.74,2.51-1.74,3.36s.86,2.64,2,4.33a21.65,21.65,0,0,1,3.52,6.43c.67,2.32.87,5.77,3.45,9.24s6.45,8.1,16.38,6.86a8.66,8.66,0,0,0,5-2.69c.67-1,.6-2.23.84-3.63Z" style="fill:#263238"></path><path d="M125.28,354.53a21.61,21.61,0,0,1-3,5.07c-1.78,2.27-2.24,3.36-2.48,5.4.09,2.43,2.68,5.52,4,7.86a71.24,71.24,0,0,1,2.9,6.72c.08.21.16.42.23.63.7,2.11.94,4.09,2.32,6.08a14.34,14.34,0,0,0,4.35,4.42A17.31,17.31,0,0,0,146,392.63a8.19,8.19,0,0,0,2.91-1.16,4.09,4.09,0,0,0,1.75-2.53c.35-2-1.17-3.77-2.48-5.31a36.48,36.48,0,0,1-5.19-7.87,33.92,33.92,0,0,1-2.09-5.91c-.75-2.94-2.13-7.65,3.48-18.38,0,0-8.94-.18-15.15-7C129.18,344.46,126.7,351.35,125.28,354.53Z" style="fill:#263238"></path><path d="M123.47,357.89c-.4.61-.8,1.15-1.23,1.71-1.78,2.27-2.24,3.36-2.48,5.4.08,1.95,1.75,4.32,3.08,6.39C125.33,369,128.19,363.22,123.47,357.89Z" style="fill:#455a64"></path><path d="M151.12,389.08a6.39,6.39,0,0,0-2.05-5.47c-.82-.81-2-1.76-3.25-3a9.67,9.67,0,0,0-1.88-.53c-6.91-.93-12.52,3.67-13.76,7.52a12.27,12.27,0,0,0,3.35,3.07A17.14,17.14,0,0,0,145.81,393a10,10,0,0,0,3.24-1.19A5.17,5.17,0,0,0,151.12,389.08Z" style="fill:#455a64"></path><path d="M133.48,378.2a.47.47,0,0,1-.24-.88c3.55-2.14,7.48-2.63,10.26-1.28a.47.47,0,0,1,.22.64.48.48,0,0,1-.64.22c-2.49-1.22-6.07-.74-9.35,1.23A.45.45,0,0,1,133.48,378.2Z" style="fill:#455a64"></path><path d="M131,373.59a.5.5,0,0,1-.44-.28.48.48,0,0,1,.24-.63c4.52-2.07,8.91-2.35,11.2-.7a.48.48,0,0,1,.11.66.47.47,0,0,1-.67.11c-2-1.43-6.1-1.11-10.24.79A.53.53,0,0,1,131,373.59Z" style="fill:#455a64"></path><path d="M140.57,369.38a.45.45,0,0,1-.32-.13c-1.79-1.66-5.92-1.86-10.27-.5a.46.46,0,0,1-.59-.31.48.48,0,0,1,.31-.6c4.74-1.49,9.14-1.21,11.2.72a.47.47,0,0,1,0,.67A.47.47,0,0,1,140.57,369.38Z" style="fill:#455a64"></path><path d="M140.53,364.66a.51.51,0,0,1-.35-.16c-1.65-1.8-5.75-2.32-10.19-1.29a.47.47,0,0,1-.57-.36.47.47,0,0,1,.35-.57c4.85-1.12,9.21-.5,11.12,1.58a.48.48,0,0,1,0,.67A.46.46,0,0,1,140.53,364.66Z" style="fill:#455a64"></path><path d="M141.34,360.28a.49.49,0,0,1-.38-.18c-1.48-1.94-5.52-2.83-10-2.21a.47.47,0,0,1-.53-.41.46.46,0,0,1,.4-.53c4.93-.68,9.22.33,10.93,2.57a.48.48,0,0,1-.38.76Z" style="fill:#455a64"></path><path d="M142.63,356.3a.49.49,0,0,1-.4-.21c-1.36-2-5.33-3.16-9.88-2.82a.48.48,0,0,1-.07-.95c4.95-.38,9.17.9,10.74,3.24a.48.48,0,0,1-.12.66A.56.56,0,0,1,142.63,356.3Z" style="fill:#455a64"></path><path d="M125.85,225c.06,8.42.37,16.21.74,22.33A98.88,98.88,0,0,0,130.3,270c2.44,8.58,12.39,36.83,13.3,39.86.38,1.25-.43,12.95,2.52,27.3,2.22,10.83,4.22,20.49,5.68,28.92,1.13,6.55-.16,11.18,3.31,12.83A20.57,20.57,0,0,0,174,376.31c1.79-1.86.05-4.37-.1-13.09-.38-21.67-2.18-61.77-3.16-65.42-1.32-4.93-9.14-41.77-9.14-41.77s18.85-6.94,19.45-27.9Z" style="fill:#455a64"></path><path d="M157.36,405c-.79.28-.36,2.27,0,3.13s1.24,1,3.24,2.15a16,16,0,0,1,5.83,5,26.65,26.65,0,0,0,8.89,7.67c4.34,2.27,10.1,3.33,15.33,1.31s5.63-4.38,5.46-6.41Z" style="fill:#263238"></path><path d="M173.72,376.47s1.14,15.25,3.51,22.11c2.48,6.06,10.32,10.44,15.25,13.77,1.45,1,3.38,2.43,3.91,4.16,1.36,4.48-7.51,6.89-11.48,6.82a17.73,17.73,0,0,1-9.28-2.46,30.42,30.42,0,0,1-4.53-4c-2.66-2.37-3.63-4.42-5.89-5.89-3.36-2.19-5.11-1.51-7.8-5.23-.42-5.47.61-5.44.57-8.8,0-3.84-2.87-18-2.87-18C162.08,381,170.33,378.74,173.72,376.47Z" style="fill:#263238"></path><path d="M175,420.44c1.21-4.87,5.1-9.27,9.44-9.8s5.43,0,6.75.62,5.36,3.54,5.36,5.53-.46,4.43-6,6.19S178.19,423.38,175,420.44Z" style="fill:#455a64"></path><path d="M158,396.94c0,3.36-1,3.34-.57,8.8,2.45,3.4,4.14,3.13,7,4.73C167.2,403.26,161.48,398.63,158,396.94Z" style="fill:#455a64"></path><path d="M174.2,410.41a.51.51,0,0,1-.33-.13.49.49,0,0,1,0-.68c.19-.2,4.75-5,10.67-3.41a.47.47,0,0,1,.33.58.46.46,0,0,1-.58.34c-5.35-1.41-9.68,3.1-9.73,3.15A.46.46,0,0,1,174.2,410.41Z" style="fill:#455a64"></path><path d="M170.83,406.32a.45.45,0,0,1-.34-.14.49.49,0,0,1,0-.68c.18-.17,4.49-4.25,9.83-3.14a.47.47,0,0,1,.37.56.46.46,0,0,1-.56.37c-4.86-1-8.94,2.86-9,2.9A.46.46,0,0,1,170.83,406.32Z" style="fill:#455a64"></path><path d="M168,401.52a.46.46,0,0,1-.4-.21.47.47,0,0,1,.13-.66,16.45,16.45,0,0,1,9.92-2.53.48.48,0,0,1-.1.95c-4.88-.54-9.24,2.34-9.29,2.37A.5.5,0,0,1,168,401.52Z" style="fill:#455a64"></path><path d="M164.44,390.94a.46.46,0,0,1-.38-.19.48.48,0,0,1,.1-.67c.15-.11,3.8-2.73,11-2a.47.47,0,0,1,.43.52.49.49,0,0,1-.52.43c-6.77-.68-10.27,1.81-10.3,1.83A.45.45,0,0,1,164.44,390.94Z" style="fill:#455a64"></path><path d="M166.18,396.06a.5.5,0,0,1-.38-.19.48.48,0,0,1,.1-.67c.15-.11,3.79-2.8,10.28-2.24a.48.48,0,0,1-.08,1c-6.1-.54-9.6,2-9.63,2.05A.52.52,0,0,1,166.18,396.06Z" style="fill:#455a64"></path><path d="M163.42,385.27A.49.49,0,0,1,163,385a.47.47,0,0,1,.23-.63,23.67,23.67,0,0,1,11.17-1.95.48.48,0,1,1-.09.95,23.21,23.21,0,0,0-10.67,1.86A.54.54,0,0,1,163.42,385.27Z" style="fill:#455a64"></path><path d="M131.06,274.88s10.18,1.84,19.27-.65c0,0,6,27.18,6.09,29.86s-11.48,4.76-15.75,1.87C138.23,304.31,131.06,274.88,131.06,274.88Z" style="fill:#263238"></path><g id="freepik--light--inject-58"><path d="M178,304.08c1.59-2.52,2.92-4.69,3.84-6.3,6.89-12.08,8.31-17.5,6.22-35.86-1.62-14.14-3.25-25.06-4.17-30.87l-1.61.75s3.51,19.85,4.08,25.55c.93,9.3,1.9,18.83.61,26.44S178.13,303.86,178,304.08Z" style="fill:#BA68C8"></path><path d="M178,304.08c1.59-2.52,2.92-4.69,3.84-6.3,6.89-12.08,8.31-17.5,6.22-35.86-1.62-14.14-3.25-25.06-4.17-30.87l-1.61.75s3.47,19.43,4.08,25.55c.93,9.3,1.9,18.83.61,26.44S178.13,303.86,178,304.08Z" style="fill:#fff;opacity:0.6000000000000001"></path></g></g><g id="freepik--Top--inject-58"><g id="freepik--Arm--inject-58"><path d="M228.71,147.42c4.47-4.57,6.79-6.3,6.2-11.15s-2-7.48-1.74-8.62,3.4-6.24,4.16-8.64,1.62-2.88,3.7-3.38,6.59-1.51,7.83-2a3,3,0,0,1-1.31,4.08c-1.18.75-2.87,1.85-2.87,1.85s1.89,1.78,2.78,2.52.83,1.44,0,4.32c0,0,1.35.39,1.65,1.37a5.82,5.82,0,0,1-.14,3,2.68,2.68,0,0,1,1.35,1.1c.49.81,0,3.2-.68,5.26-.5,2.44-.29,5.59-.89,7.64s-3.44,4.11-5.41,5.37L230.68,165l-15.88-4.39S225.44,150.77,228.71,147.42Z" style="fill:#ffa8a7"></path><path d="M214.8,160.56s-25.86-6.87-29.73-7.92a89.52,89.52,0,0,0-13.29-2.81l4.21,25.1s24,3.67,35,4.62c6.89.59,9.89-.33,13-4.21s19.38-25.24,19.38-25.24Z" style="fill:#ffa8a7"></path><path d="M200.07,178.33c4.1.52,8,1,10.94,1.22,6.89.59,9.89-.33,13-4.21,2.13-2.66,10.42-13.5,15.44-20.08A47.48,47.48,0,0,0,200.07,178.33Z" style="fill:#fff;opacity:0.30000000000000004"></path><path d="M214.8,160.56a15.07,15.07,0,0,0-4.51,8.11,11.75,11.75,0,0,1,2.6-8.62Z" style="fill:#f28f8f"></path><path d="M207.78,158.69c-2.4,2.36-6.32,14.59-4.89,20.42l-27.58-3.44c-11.06-10.14-6.65-27.67-6.65-27.67,6.84.93,10.14,2,19.29,4.82C195.26,155.05,207.78,158.69,207.78,158.69Z" style="fill:#455a64"></path><path d="M236,128.26a9.14,9.14,0,0,0,2.88-5.14c.3-2,.49-4.16,1.12-4.26,1.05-.16,3.31,1.63,3.11,4.88-.19,3.09-1.2,6.8-1.19,7.69s1,2.88,1.83,4.39a8.4,8.4,0,0,1-1.67,9.49,7.81,7.81,0,0,0,3.36-4.72c1.05-3.53-1.38-6.67-2-8.23s-.73-1.89-.07-4.77,1.39-6-1.09-8.45-3.3-1-3.56-.08S238.53,125.86,236,128.26Z" style="fill:#f28f8f"></path><path d="M244.68,119.53l-1.84,1.21.69.43a2.57,2.57,0,0,1,2.75-.16Z" style="fill:#f28f8f"></path><path d="M247.51,126.37c-.23.95-1.11,3.86-1.28,4.45s-1.27.55-2-.45a4,4,0,0,1-1-2.82,4.4,4.4,0,0,0,.55,3.1c.92,1.31,1.95,1.36,2.55,1.1S247,128.4,247.51,126.37Z" style="fill:#f28f8f"></path><path d="M249,130.73c-.16.72-.54,1.66-1,3.64-.27,1.14-.41,1.88-1.1,1.88a2.91,2.91,0,0,1-2-2.64,9.92,9.92,0,0,1,.26-2.33l-.56-.17a7.73,7.73,0,0,0-.12,3.67c.47,1.57,2.17,2.63,2.82,2.13s.78-1.15,1.11-2.8S249,130.73,249,130.73Z" style="fill:#f28f8f"></path><path d="M247.42,136.34c0,.48.32,1.5,1.09,1.43a1.64,1.64,0,0,0,1.18-.68,1.42,1.42,0,0,1-1.22,1.11c-.93.07-1.49-.83-1.74-1.62Z" style="fill:#f28f8f"></path></g><circle id="freepik--light--inject-58" cx="240.82" cy="202.73" r="47.49" transform="translate(-72.82 229.66) rotate(-45)" style="fill:#BA68C8;opacity:0.1"></circle><g id="freepik--Lantern--inject-58"><path d="M254.82,222.1c-7.16-4.14-18.79-4.14-25.95,0-3.6,2.08-5.39,4.8-5.38,7.52v1c0,2.71,1.8,5.42,5.38,7.49,7.17,4.14,18.79,4.14,25.95,0,3.6-2.07,5.39-4.79,5.38-7.51v-1C260.2,226.89,258.41,224.18,254.82,222.1Z" style="fill:#BA68C8"></path><path d="M254.82,222.1c-7.16-4.14-18.79-4.14-25.95,0-3.6,2.08-5.39,4.8-5.38,7.52v1c0,2.71,1.8,5.42,5.38,7.49,7.17,4.14,18.79,4.14,25.95,0,3.6-2.07,5.39-4.79,5.38-7.51v-1C260.2,226.89,258.41,224.18,254.82,222.1Z" style="opacity:0.30000000000000004"></path><path d="M260.2,229.58v0c0,2.71-1.8,5.41-5.38,7.47-7.16,4.14-18.78,4.14-25.95,0-3.57-2.06-5.36-4.76-5.38-7.47v-.06c0-.36,0-.11,0-.94a7.28,7.28,0,0,1,.38-2.41c.63-1.77,2.1-3.7,5.5-5.66,6.89-4,18.06-4,24.95,0,3.4,2,4.87,3.89,5.5,5.66a7.28,7.28,0,0,1,.38,2.41Z" style="fill:#BA68C8"></path><path d="M260.2,229.58v0c0,2.71-1.8,5.41-5.38,7.47-7.16,4.14-18.78,4.14-25.95,0-3.57-2.06-5.36-4.76-5.38-7.47v-.06c0-.36,0-.11,0-.94a7.28,7.28,0,0,1,.38-2.41c.63-1.77,2.1-3.7,5.5-5.66,6.89-4,18.06-4,24.95,0,3.4,2,4.87,3.89,5.5,5.66a7.28,7.28,0,0,1,.38,2.41Z" style="fill:#BA68C8"></path><path d="M260.2,229.58v0c0,2.71-1.8,5.41-5.38,7.47-7.16,4.14-18.78,4.14-25.95,0-3.57-2.06-5.36-4.76-5.38-7.47v-.06c0-.36,0-.11,0-.94a7.28,7.28,0,0,1,.38-2.41c.63-1.77,2.1-3.7,5.5-5.66,6.89-4,18.06-4,24.95,0,3.4,2,4.87,3.89,5.5,5.66a7.28,7.28,0,0,1,.38,2.41Z" style="opacity:0.1"></path><ellipse cx="241.85" cy="227.75" rx="17.65" ry="10.19" style="fill:#BA68C8"></ellipse><path d="M257.22,221.83c0-2.28-1.5-4.55-4.5-6.28-6-3.47-15.74-3.47-21.75,0-3,1.73-4.5,4-4.5,6.28v5.92c0,2.28,1.5,4.55,4.5,6.28,6,3.47,15.74,3.47,21.75,0,3-1.73,4.5-4,4.5-6.28Z" style="fill:#BA68C8"></path><path d="M257.22,221.83c0-2.28-1.5-4.55-4.5-6.28-6-3.47-15.74-3.47-21.75,0-3,1.73-4.5,4-4.5,6.28v5.92c0,2.28,1.5,4.55,4.5,6.28,6,3.47,15.74,3.47,21.75,0,3-1.73,4.5-4,4.5-6.28Z" style="opacity:0.1"></path><path d="M257.72,220.86c0-2.34-1.55-4.69-4.65-6.48-6.2-3.58-16.25-3.58-22.45,0-3.1,1.79-4.65,4.14-4.65,6.48v1c0,2.34,1.55,4.69,4.65,6.48,6.2,3.58,16.25,3.58,22.45,0,3.1-1.79,4.65-4.14,4.65-6.48Z" style="fill:#BA68C8"></path><path d="M257.72,220.86c0-2.34-1.55-4.69-4.65-6.48-6.2-3.58-16.25-3.58-22.45,0-3.1,1.79-4.65,4.14-4.65,6.48v1c0,2.34,1.55,4.69,4.65,6.48,6.2,3.58,16.25,3.58,22.45,0,3.1-1.79,4.65-4.14,4.65-6.48Z" style="opacity:0.30000000000000004"></path><path d="M255.8,217.13l-.3-.36a17.88,17.88,0,0,0-27.3,0l-.31.36a5.93,5.93,0,0,0-1.42,3.73c0,2.27,1.5,4.55,4.5,6.28,6,3.47,15.75,3.47,21.75,0,3-1.73,4.5-4,4.5-6.28A5.93,5.93,0,0,0,255.8,217.13Z" style="fill:#BA68C8"></path><path d="M236.37,219.14a12.14,12.14,0,0,0,10.95,0,3.33,3.33,0,0,0,0-6.32,12.08,12.08,0,0,0-10.95,0,3.33,3.33,0,0,0,0,6.32Z" style="fill:#BA68C8"></path><path d="M236.37,219.14a12.14,12.14,0,0,0,10.95,0,3.33,3.33,0,0,0,0-6.32,12.08,12.08,0,0,0-10.95,0,3.33,3.33,0,0,0,0,6.32Z" style="opacity:0.1"></path><path d="M248.25,213a3.18,3.18,0,0,0-1.88-2.61,10,10,0,0,0-9.05,0,3.18,3.18,0,0,0-1.88,2.61v2.81a3.19,3.19,0,0,0,1.88,2.61,10,10,0,0,0,9.05,0,3.19,3.19,0,0,0,1.88-2.61Z" style="fill:#f0f0f0"></path><path d="M237.32,215.56a10,10,0,0,0,9.05,0,2.75,2.75,0,0,0,0-5.22,10,10,0,0,0-9.05,0,2.75,2.75,0,0,0,0,5.22Z" style="fill:#fafafa"></path><path d="M248.24,214.25v1.51a3.16,3.16,0,0,1-1.87,2.61,10,10,0,0,1-9.05,0,4.66,4.66,0,0,1-1.14-.89,2.82,2.82,0,0,1-.55-.84,2.91,2.91,0,0,1-.12-.35,2.46,2.46,0,0,1-.06-.53v-1.51a2.78,2.78,0,0,0-.46,1.51,3.6,3.6,0,0,0,2.1,3,10.49,10.49,0,0,0,9.51,0,3.6,3.6,0,0,0,2.1-3A2.7,2.7,0,0,0,248.24,214.25Z" style="fill:#e0e0e0"></path><g id="freepik--Lamp--inject-58"><path d="M251.38,186.37H232.31c0,4.4-5.88,13.34-4.12,21.43a15,15,0,0,0,6.67,9h0a15.48,15.48,0,0,0,14,0,15,15,0,0,0,6.67-9C257.26,199.71,251.38,190.77,251.38,186.37Z" style="fill:#BA68C8;opacity:0.30000000000000004"></path><path d="M234.86,216.85a15.48,15.48,0,0,0,14,0c1.93-1.12,2.89-2.58,2.89-4s-1-2.92-2.89-4a15.48,15.48,0,0,0-14,0c-1.93,1.12-2.89,2.58-2.89,4S232.93,215.73,234.86,216.85Z" style="fill:#BA68C8;opacity:0.2"></path><path d="M251.38,186.37H232.31c0,4.4-5.88,13.34-4.12,21.43a15,15,0,0,0,6.67,9h0a15.48,15.48,0,0,0,14,0,15,15,0,0,0,6.67-9C257.26,199.71,251.38,190.77,251.38,186.37Z" style="fill:#fff;opacity:0.35000000000000003"></path></g><path d="M251.38,184.24c0-1.41-.93-2.82-2.79-3.9a14.91,14.91,0,0,0-13.49,0c-1.86,1.08-2.79,2.49-2.79,3.9v2.13c0,1.41.93,2.82,2.79,3.89a14.91,14.91,0,0,0,13.49,0c1.86-1.07,2.79-2.48,2.79-3.89Z" style="fill:#BA68C8"></path><path d="M251.38,184.24c0-1.41-.93-2.82-2.79-3.9a14.91,14.91,0,0,0-13.49,0c-1.86,1.08-2.79,2.49-2.79,3.9v2.13c0,1.41.93,2.82,2.79,3.89a14.91,14.91,0,0,0,13.49,0c1.86-1.07,2.79-2.48,2.79-3.89Z" style="opacity:0.1"></path><path d="M248.08,179.84a6.28,6.28,0,0,0-.76-.51,12.08,12.08,0,0,0-10.95,0,6.42,6.42,0,0,0-.77.51L234.16,181a4.23,4.23,0,0,0-1.85,3.26c0,1.4.93,2.81,2.79,3.89a14.91,14.91,0,0,0,13.49,0c1.86-1.08,2.79-2.49,2.79-3.89a4.21,4.21,0,0,0-1.84-3.25Z" style="fill:#BA68C8"></path><path d="M251.38,184.57v1.8c0,1.41-.93,2.82-2.79,3.89a14.91,14.91,0,0,1-13.49,0c-1.86-1.07-2.79-2.48-2.79-3.89v-1.8a3.85,3.85,0,0,0-.46,1.8c0,1.64,1.08,3.16,3,4.29a15.38,15.38,0,0,0,13.94,0c1.94-1.13,3-2.65,3-4.29A3.84,3.84,0,0,0,251.38,184.57Z" style="fill:#BA68C8"></path><path d="M251.38,184.57v1.8c0,1.41-.93,2.82-2.79,3.89a14.91,14.91,0,0,1-13.49,0c-1.86-1.07-2.79-2.48-2.79-3.89v-1.8a3.85,3.85,0,0,0-.46,1.8c0,1.64,1.08,3.16,3,4.29a15.38,15.38,0,0,0,13.94,0c1.94-1.13,3-2.65,3-4.29A3.84,3.84,0,0,0,251.38,184.57Z" style="opacity:0.30000000000000004"></path><path d="M249.59,176.34a3.84,3.84,0,0,0-2.27-3.16,12.08,12.08,0,0,0-10.95,0,3.84,3.84,0,0,0-2.27,3.16v6.15a3.85,3.85,0,0,0,2.27,3.16,12.14,12.14,0,0,0,10.95,0,3.85,3.85,0,0,0,2.27-3.16Z" style="fill:#BA68C8"></path><path d="M249.59,176.34a3.84,3.84,0,0,0-2.27-3.16,12.08,12.08,0,0,0-10.95,0,3.84,3.84,0,0,0-2.27,3.16v6.15a3.85,3.85,0,0,0,2.27,3.16,12.14,12.14,0,0,0,10.95,0,3.85,3.85,0,0,0,2.27-3.16Z" style="opacity:0.1"></path><path d="M249.59,176.34a3.84,3.84,0,0,0-2.27-3.16,12.08,12.08,0,0,0-10.95,0,3.84,3.84,0,0,0-2.27,3.16v5.23a10.49,10.49,0,0,0,3.58,1.76,14.51,14.51,0,0,0,4.35.55,15,15,0,0,0,4-.55,10.52,10.52,0,0,0,3.57-1.76Z" style="opacity:0.1"></path><path d="M249.71,173.23a3.25,3.25,0,0,0,.66,1.17,3.8,3.8,0,0,1,1,2.26,1.27,1.27,0,0,1,0,.2v0s0,.11,0,.17a3.67,3.67,0,0,1-1,2.22,6.37,6.37,0,0,1-.64.63l-.27.23h0l-.29.22c-.19.12-.38.25-.58.36l-.08.05a1.4,1.4,0,0,1-.17.09,10,10,0,0,1-1.86.8l-.32.1-.11,0-.54.15-.25.06c-.34.07-.67.13-1,.18-.13,0-.26,0-.4.06l-.53.06-.47,0-.33,0H242c-.23,0-.45,0-.67,0a14.58,14.58,0,0,1-4.76-.91l-.39-.16-.36-.16-.2-.09a9,9,0,0,1-1.24-.74,4.26,4.26,0,0,1-2.09-3.26s0-.1,0-.14a.61.61,0,0,1,0-.14v-.13a3.78,3.78,0,0,1,1-2.23,3.1,3.1,0,0,0,.66-1.17,4.69,4.69,0,0,0-2.13,3.7c0,1.12.53,2.77,3,4.21a14.26,14.26,0,0,0,7,1.69,14,14,0,0,0,6.88-1.66c2-1.14,3.07-2.65,3.07-4.24A4.69,4.69,0,0,0,249.71,173.23Z" style="fill:#BA68C8"></path><path d="M249.71,173.23a3.25,3.25,0,0,0,.66,1.17,3.8,3.8,0,0,1,1,2.26,1.27,1.27,0,0,1,0,.2v0s0,.11,0,.17a3.67,3.67,0,0,1-1,2.22,6.37,6.37,0,0,1-.64.63l-.27.23h0l-.29.22c-.19.12-.38.25-.58.36l-.08.05a1.4,1.4,0,0,1-.17.09,10,10,0,0,1-1.86.8l-.32.1-.11,0-.54.15-.25.06c-.34.07-.67.13-1,.18-.13,0-.26,0-.4.06l-.53.06-.47,0-.33,0H242c-.23,0-.45,0-.67,0a14.58,14.58,0,0,1-4.76-.91l-.39-.16-.36-.16-.2-.09a9,9,0,0,1-1.24-.74,4.26,4.26,0,0,1-2.09-3.26s0-.1,0-.14a.61.61,0,0,1,0-.14v-.13a3.78,3.78,0,0,1,1-2.23,3.1,3.1,0,0,0,.66-1.17,4.69,4.69,0,0,0-2.13,3.7c0,1.12.53,2.77,3,4.21a14.26,14.26,0,0,0,7,1.69,14,14,0,0,0,6.88-1.66c2-1.14,3.07-2.65,3.07-4.24A4.69,4.69,0,0,0,249.71,173.23Z" style="opacity:0.30000000000000004"></path><path d="M250.37,174.4a3,3,0,0,1-.78-2v-.19a2.79,2.79,0,0,0-.07-.58c-.18-.8-.34-.42-.34-1.25v-.56c0-1.5-1.37-3-4.13-3.82a11.31,11.31,0,0,0-6.42,0c-2.75.82-4.12,2.32-4.12,3.82v.56c0,.83-.16.45-.34,1.25a2.79,2.79,0,0,0-.07.58v.19a3,3,0,0,1-.78,2,3.74,3.74,0,0,0-1,2.46c0,1.95,1.79,3.9,5.37,5a14.51,14.51,0,0,0,4.35.55,14.23,14.23,0,0,0,4-.55c3.57-1.06,5.36-3,5.36-5A3.74,3.74,0,0,0,250.37,174.4Z" style="fill:#BA68C8"></path><path d="M249.59,172.22c0-1.15-.76-1.1-2.27-2a12.08,12.08,0,0,0-10.95,0c-1.51.87-2.27.82-2.27,2v3a3.85,3.85,0,0,0,2.27,3.16,12.08,12.08,0,0,0,10.95,0,3.85,3.85,0,0,0,2.27-3.16Z" style="opacity:0.1"></path><path d="M236.37,175.38a12.14,12.14,0,0,0,10.95,0,3.87,3.87,0,0,0,2.27-3.16c0-1.15-.76-1.1-2.27-2a12.08,12.08,0,0,0-10.95,0c-1.51.87-2.27.82-2.27,2A3.87,3.87,0,0,0,236.37,175.38Z" style="fill:#BA68C8"></path><path d="M249.18,169.83a3.62,3.62,0,0,0-2.15-3,11.42,11.42,0,0,0-10.37,0,3.62,3.62,0,0,0-2.15,3v1.68a3.62,3.62,0,0,0,2.15,3,11.42,11.42,0,0,0,10.37,0,3.62,3.62,0,0,0,2.15-3Z" style="opacity:0.1"></path><path d="M236.66,172.83a11.48,11.48,0,0,0,10.37,0,3.16,3.16,0,0,0,0-6,11.42,11.42,0,0,0-10.37,0,3.16,3.16,0,0,0,0,6Z" style="fill:#BA68C8"></path><path d="M248,166.58a3,3,0,0,0-1.8-2.51,9.64,9.64,0,0,0-8.72,0,3,3,0,0,0-1.81,2.51v2.87a3,3,0,0,0,1.81,2.51,9.64,9.64,0,0,0,8.72,0,3,3,0,0,0,1.8-2.51Z" style="fill:#BA68C8"></path><path d="M248,166.58a3,3,0,0,0-1.8-2.51,9.64,9.64,0,0,0-8.72,0,3,3,0,0,0-1.81,2.51v2.87a3,3,0,0,0,1.81,2.51,9.64,9.64,0,0,0,8.72,0,3,3,0,0,0,1.8-2.51Z" style="opacity:0.2"></path><path d="M237.49,169.1a9.64,9.64,0,0,0,8.72,0,2.66,2.66,0,0,0,0-5,9.64,9.64,0,0,0-8.72,0,2.65,2.65,0,0,0,0,5Z" style="fill:#BA68C8"></path><path d="M246.51,170.32a1.64,1.64,0,0,1-1,1.22,8.73,8.73,0,0,1-1.78.53c-.62.11-1.14-.17-1.14-.55s.52-.72,1.14-.83a8.12,8.12,0,0,0,1.78-.52C246.09,169.92,246.51,169.93,246.51,170.32Z" style="fill:#37474f"></path><path d="M237.18,170.32a1.66,1.66,0,0,0,1,1.22,8.36,8.36,0,0,0,1.78.53c.62.11,1.13-.17,1.13-.55s-.51-.72-1.14-.83a8.12,8.12,0,0,1-1.78-.52C237.61,169.92,237.18,169.93,237.18,170.32Z" style="fill:#37474f"></path><path d="M247,163.05a9.17,9.17,0,0,0-2.89-1,6.44,6.44,0,0,1,1.73.68,3.92,3.92,0,0,1,.56.38c.15.11.65.5.93.73l.15.12a2.69,2.69,0,0,1,.32.27.93.93,0,0,1,.14.14.83.83,0,0,1,.13.14l.13.15a3.52,3.52,0,0,1,.3.45,2.45,2.45,0,0,1,.25.61.75.75,0,0,1,0,.16.59.59,0,0,1,0,.13.77.77,0,0,1,0,.15c0,.06,0,.13,0,.19a2.86,2.86,0,0,1-1,2.06l-.18.17a5.75,5.75,0,0,1-.9.64,8.06,8.06,0,0,1-1.11.52c-.19.08-.39.14-.6.21l-.31.08a7.43,7.43,0,0,1-1,.21l-.32.06c-.28,0-.56.06-.83.08s-.57,0-.85,0a11,11,0,0,1-1.63-.11l-.37-.06a7.43,7.43,0,0,1-1-.21l-.31-.08c-.2-.07-.4-.13-.59-.21a6.29,6.29,0,0,1-1.11-.52,3.5,3.5,0,0,1-2.06-2.87,1.21,1.21,0,0,1,0-.19s0-.1,0-.15a.61.61,0,0,1,0-.13,3.11,3.11,0,0,1,1-1.66l.32-.27h0l.22-.17.85-.67a4.34,4.34,0,0,1,.57-.38,6.37,6.37,0,0,1,1.74-.68,9.2,9.2,0,0,0-2.91,1,3.48,3.48,0,0,0,0,6.54,11.44,11.44,0,0,0,10.4,0,3.47,3.47,0,0,0,0-6.54Z" style="fill:#BA68C8"></path><path d="M247,163.05a9.17,9.17,0,0,0-2.89-1,6.44,6.44,0,0,1,1.73.68,3.92,3.92,0,0,1,.56.38c.15.11.65.5.93.73l.15.12a2.69,2.69,0,0,1,.32.27.93.93,0,0,1,.14.14.83.83,0,0,1,.13.14l.13.15a3.52,3.52,0,0,1,.3.45,2.45,2.45,0,0,1,.25.61.75.75,0,0,1,0,.16.59.59,0,0,1,0,.13.77.77,0,0,1,0,.15c0,.06,0,.13,0,.19a2.86,2.86,0,0,1-1,2.06l-.18.17a5.75,5.75,0,0,1-.9.64,8.06,8.06,0,0,1-1.11.52c-.19.08-.39.14-.6.21l-.31.08a7.43,7.43,0,0,1-1,.21l-.32.06c-.28,0-.56.06-.83.08s-.57,0-.85,0a11,11,0,0,1-1.63-.11l-.37-.06a7.43,7.43,0,0,1-1-.21l-.31-.08c-.2-.07-.4-.13-.59-.21a6.29,6.29,0,0,1-1.11-.52,3.5,3.5,0,0,1-2.06-2.87,1.21,1.21,0,0,1,0-.19s0-.1,0-.15a.61.61,0,0,1,0-.13,3.11,3.11,0,0,1,1-1.66l.32-.27h0l.22-.17.85-.67a4.34,4.34,0,0,1,.57-.38,6.37,6.37,0,0,1,1.74-.68,9.2,9.2,0,0,0-2.91,1,3.48,3.48,0,0,0,0,6.54,11.44,11.44,0,0,0,10.4,0,3.47,3.47,0,0,0,0-6.54Z" style="opacity:0.30000000000000004"></path><path d="M246.44,163.07a4.94,4.94,0,0,0-.56-.37,8.92,8.92,0,0,0-8.08,0,6.08,6.08,0,0,0-.56.38l-1.07.84a3.13,3.13,0,0,0-1.36,2.4,3.5,3.5,0,0,0,2.06,2.87,11,11,0,0,0,9.95,0,3.5,3.5,0,0,0,2.06-2.87,3.11,3.11,0,0,0-1.36-2.39Z" style="fill:#BA68C8"></path><path d="M238.85,166.17a6.65,6.65,0,0,0,6,0,1.83,1.83,0,0,0,0-3.46,6.65,6.65,0,0,0-6,0,1.83,1.83,0,0,0,0,3.46Z" style="opacity:0.05"></path><path id="freepik--shadow--inject-58" d="M245.33,162.31l-.11.07-1.52,1a10,10,0,0,0-1.11.25,9.41,9.41,0,0,0-2.79,1.11,4,4,0,0,0-2.18,3.35,3.09,3.09,0,0,0,.68,1.79l.08.1,0,0-.16.29-.05.09a2.6,2.6,0,0,0-.13.36s0,0,0,.05-.05.21-.06.31a.38.38,0,0,0,0,.1,1.45,1.45,0,0,0,0,.36c0,.27,0,.44,0,.57,0,.81-.15.44-.3,1.25,0,.12,0,.24,0,.35a1.69,1.69,0,0,0,0,.23v.19a2.59,2.59,0,0,1-.1.83,4.7,4.7,0,0,0-2,3.76,4.57,4.57,0,0,0,2.38,3.64c0,.14,0,.27,0,.39h0l-.33.3a.43.43,0,0,0-.11.12,4.55,4.55,0,0,0-.73.95l-.13.22a2.29,2.29,0,0,1-.1.23l-.1.27-.06.2a1.88,1.88,0,0,0-.06.31c0,.06,0,.12,0,.17s0,.32,0,.48c0,.36,0,.33,0,.33a3.78,3.78,0,0,0,0,3.25c-.77,4.75-5.9,13.15-4.45,20.47a11.27,11.27,0,0,0,5.74,7.86,10.89,10.89,0,0,1-2.74-1.17c-2.48,1.8-3.67,4-3.6,6.09,0,.16,0,.8,0,1a5.12,5.12,0,0,0,.16,1.1,8.37,8.37,0,0,0-2.11,3.35,7.59,7.59,0,0,0-.3,2.42c0,.83,0,.58,0,.94v.06c0,.09,0,.3,0,.52s0,.45,0,.53c.1,2.71,2,5.36,5.63,7.3a14,14,0,0,0,1.46.7,23.27,23.27,0,0,1-7.18-2.56c-3.57-2.07-5.37-4.78-5.37-7.49v-1h0v-1a7.28,7.28,0,0,1,.38-2.41,8.37,8.37,0,0,1,2.22-3.27,5.24,5.24,0,0,1-.12-1.11v-1c0-2.34,1.55-4.69,4.65-6.48l.1,0,.63-.48a14.42,14.42,0,0,1-3.16-6c-1.59-7.3,3-15.28,4-20a3.69,3.69,0,0,1,.16-3.24v-.34a2.56,2.56,0,0,1,0-.47l0-.17c0-.1.05-.21.08-.31s0-.14.07-.2l.11-.27c0-.07.07-.15.11-.22a1.64,1.64,0,0,1,.14-.22,5.28,5.28,0,0,1,.75-.93l.12-.11.34-.29h0v-.39a4.57,4.57,0,0,1-2.25-3.72,4.69,4.69,0,0,1,2.13-3.7,2.82,2.82,0,0,0,.12-.83v-.18c0-.09,0-.16,0-.23s0-.23.06-.35c.18-.8.34-.42.34-1.24v-.57c0-.12,0-.24,0-.36a.3.3,0,0,0,0-.1c0-.1,0-.2.08-.3a.14.14,0,0,1,0-.06,1.7,1.7,0,0,1,.14-.35.41.41,0,0,0,.05-.09l.17-.28,0,0a3.14,3.14,0,0,1-.69-1.92,3.94,3.94,0,0,1,2.29-3.27,9.58,9.58,0,0,1,2.83-1h.06c.12,0,.25-.06.38-.09l.19,0,.42-.07h.07a9.78,9.78,0,0,1,3.54.2l.09,0C244.6,162.11,245,162.21,245.33,162.31Z" style="opacity:0.1"></path><path d="M242.79,163.15a.27.27,0,0,1,.27,0,.83.83,0,0,1,.37.66.25.25,0,0,1-.11.24l-2.42,1.41-.53-.93Z" style="fill:#BA68C8"></path><path d="M242.79,163.15a.27.27,0,0,1,.27,0,.83.83,0,0,1,.37.66.25.25,0,0,1-.11.24l-2.42,1.41-.53-.93Z" style="opacity:0.30000000000000004"></path><path d="M243.39,163.6a.59.59,0,0,1,0,.23.25.25,0,0,1-.11.24l-2.42,1.41-.19-.33Z" style="opacity:0.30000000000000004"></path><path d="M241,165.23a.83.83,0,0,0-.38-.65.28.28,0,0,0-.26,0,.27.27,0,0,0-.11.25.84.84,0,0,0,.37.65.23.23,0,0,0,.38-.22Z" style="fill:#BA68C8"></path><path d="M241,165.23a.83.83,0,0,0-.38-.65.28.28,0,0,0-.26,0,.27.27,0,0,0-.11.25.84.84,0,0,0,.37.65.23.23,0,0,0,.38-.22Z" style="opacity:0.2"></path><path d="M240.85,165.14a.47.47,0,0,0-.22-.37.17.17,0,0,0-.15,0,.16.16,0,0,0-.06.14.47.47,0,0,0,.21.37.14.14,0,0,0,.15,0A.15.15,0,0,0,240.85,165.14Z" style="fill:#37474f"></path><path d="M240.52,164.84a.3.3,0,0,1,0-.1.16.16,0,0,1,.09,0,.47.47,0,0,1,.22.37.17.17,0,0,1,0,.1l-.09,0A.51.51,0,0,1,240.52,164.84Z" style="fill:#263238"></path><path d="M244.45,159.84c-.07-.05-.23-.12-.51,0l-4.31,2.49a1,1,0,0,0-.43,1.15l.45,1.29a.68.68,0,0,0,.41.43.64.64,0,0,0,.23,0,.72.72,0,0,0,.37-.11l.05,0-.11-.2-.06,0a.44.44,0,0,1-.4.05.49.49,0,0,1-.28-.3l-.44-1.28a.75.75,0,0,1,.33-.88l4.3-2.49a.56.56,0,0,1,.21-.08l.05,0s.06.11,0,.26l-.57,2.3a2,2,0,0,1-.49.79.78.78,0,0,1,.11.2,2,2,0,0,0,.6-.94l.57-2.29C244.63,160,244.52,159.89,244.45,159.84Z" style="fill:#37474f"></path><path d="M260,212.53,256.37,178c-.38-3.68-3.11-6.45-6.35-6.45h-.84a.43.43,0,0,0-.23.07,1.42,1.42,0,0,0-.55.75,2,2,0,0,0-.16.74.81.81,0,0,0,.27.7.27.27,0,0,0,.17.06H250c2,0,3.78,1.88,4,4.37l3.64,34.55a5.69,5.69,0,0,1-1.31,4.35,3.7,3.7,0,0,1-2.73,1.29h-.85a.89.89,0,0,0-.45.12,1.09,1.09,0,0,0-.17.13,1.2,1.2,0,0,0-.15,1.43,1.34,1.34,0,0,0,.3.36,1.11,1.11,0,0,0,.71.29h.61a6,6,0,0,0,4.45-2.07A7.93,7.93,0,0,0,260,212.53Z" style="fill:#BA68C8"></path><path d="M260,212.53,256.37,178c-.38-3.68-3.11-6.45-6.35-6.45h-.84a.43.43,0,0,0-.23.07,1.42,1.42,0,0,0-.55.75,2,2,0,0,0-.16.74.81.81,0,0,0,.27.7.27.27,0,0,0,.17.06H250c2,0,3.78,1.88,4,4.37l3.64,34.55a5.69,5.69,0,0,1-1.31,4.35,3.7,3.7,0,0,1-2.73,1.29h-.85a.89.89,0,0,0-.45.12,1.09,1.09,0,0,0-.17.13,1.2,1.2,0,0,0-.15,1.43,1.34,1.34,0,0,0,.3.36,1.11,1.11,0,0,0,.71.29h.61a6,6,0,0,0,4.45-2.07A7.93,7.93,0,0,0,260,212.53Z" style="opacity:0.1"></path><path d="M258.11,218.68a6.06,6.06,0,0,1-3.38,2,6,6,0,0,0,1-.3c-.87-.16-1.84-.53-.26-1.34,2.44-1.25,3.29-3.5,3-6.86S255.61,184,255,179.71s-1.26-5.41-3.21-6.13-2.74-1.05-1.81-2c3.24,0,6,2.77,6.35,6.45L260,212.53A7.93,7.93,0,0,1,258.11,218.68Z" style="opacity:0.2"></path><path d="M223.68,212.53,227.31,178c.39-3.68,3.12-6.45,6.36-6.45h.84a.43.43,0,0,1,.23.07,1.48,1.48,0,0,1,.55.75,2,2,0,0,1,.15.74.78.78,0,0,1-.27.7.25.25,0,0,1-.16.06h-1.34c-2,0-3.79,1.88-4,4.37L226,212.78a5.69,5.69,0,0,0,1.31,4.35,3.69,3.69,0,0,0,2.73,1.29h.85a.92.92,0,0,1,.45.12,1.09,1.09,0,0,1,.17.13,1.2,1.2,0,0,1,.15,1.43,1.34,1.34,0,0,1-.3.36,1.11,1.11,0,0,1-.71.29H230a6,6,0,0,1-4.45-2.07A7.93,7.93,0,0,1,223.68,212.53Z" style="fill:#BA68C8"></path><path d="M223.68,212.53,227.31,178c.39-3.68,3.12-6.45,6.36-6.45h.84a.43.43,0,0,1,.23.07,1.48,1.48,0,0,1,.55.75,2,2,0,0,1,.15.74.78.78,0,0,1-.27.7.25.25,0,0,1-.16.06h-1.34c-2,0-3.79,1.88-4,4.37L226,212.78a5.69,5.69,0,0,0,1.31,4.35,3.69,3.69,0,0,0,2.73,1.29h.85a.92.92,0,0,1,.45.12,1.09,1.09,0,0,1,.17.13,1.2,1.2,0,0,1,.15,1.43,1.34,1.34,0,0,1-.3.36,1.11,1.11,0,0,1-.71.29H230a6,6,0,0,1-4.45-2.07A7.93,7.93,0,0,1,223.68,212.53Z" style="opacity:0.1"></path><path d="M228.2,219c-2.44-1.25-3.29-3.51-3-6.86s2.92-28.15,3.49-32.43,1.26-5.41,3.21-6.13,2.74-1.05,1.81-2h.84a.43.43,0,0,1,.23.07,1.48,1.48,0,0,1,.55.75,2,2,0,0,1,.15.74.78.78,0,0,1-.27.7.25.25,0,0,1-.16.06h-1.34c-2,0-3.79,1.88-4,4.37L226,212.78a5.69,5.69,0,0,0,1.31,4.35,3.69,3.69,0,0,0,2.73,1.29h.85a.92.92,0,0,1,.45.12,1.09,1.09,0,0,1,.17.13,1.2,1.2,0,0,1,.15,1.43,1.34,1.34,0,0,1-.3.36,1.11,1.11,0,0,1-.71.29H230a5.72,5.72,0,0,1-2.09-.41C228.81,220.18,229.78,219.81,228.2,219Z" style="opacity:0.2"></path><g id="freepik--Lights--inject-58"><path d="M238.69,179.32a14.8,14.8,0,0,0,2.2.24,16.16,16.16,0,0,0,2.2-.05,13.51,13.51,0,0,0,2.18-.33,7,7,0,0,0,2-.78,5.55,5.55,0,0,1-2,.95,11.8,11.8,0,0,1-2.2.39,15.23,15.23,0,0,1-2.24,0A10,10,0,0,1,238.69,179.32Z" style="fill:#fff"></path><path d="M243.42,182.3a25.73,25.73,0,0,0,3.25-.81,11.65,11.65,0,0,0,3-1.47,7.74,7.74,0,0,1-2.91,1.69A12.2,12.2,0,0,1,243.42,182.3Z" style="fill:#fff"></path><path d="M240.85,176.69a22.11,22.11,0,0,0,3.36-.33,13.21,13.21,0,0,0,3.2-1.06,8.4,8.4,0,0,1-3.16,1.28A11.09,11.09,0,0,1,240.85,176.69Z" style="fill:#fff"></path><path d="M240.85,174.05a20.9,20.9,0,0,0,3.36-.33,13.19,13.19,0,0,0,3.2-1.05,8.4,8.4,0,0,1-3.16,1.28A11.09,11.09,0,0,1,240.85,174.05Z" style="fill:#fff"></path><path d="M240.26,166.73a8.18,8.18,0,0,0,3-.09,5.92,5.92,0,0,0,1.4-.47,3.76,3.76,0,0,0,1.18-.88,3.11,3.11,0,0,1-1.12,1,5.52,5.52,0,0,1-1.42.53A6.21,6.21,0,0,1,240.26,166.73Z" style="fill:#fff"></path><path d="M238.14,229.48l1.26.07c.42,0,.84,0,1.26,0,.84,0,1.67,0,2.51-.1a27.41,27.41,0,0,0,4.93-.81,19.68,19.68,0,0,0,4.63-1.83l.54-.31c.18-.1.34-.23.52-.34l.51-.36.48-.41a8,8,0,0,0,.9-.85,4.54,4.54,0,0,0,.41-.48l.39-.5a9.09,9.09,0,0,1-1.55,2l-.47.44-.5.39-.51.38-.54.35a17.46,17.46,0,0,1-4.7,2,23,23,0,0,1-5,.72A23.67,23.67,0,0,1,238.14,229.48Z" style="fill:#fff"></path><path d="M243.29,237.91c1.29-.13,2.57-.3,3.84-.55a26.45,26.45,0,0,0,3.71-1,21.5,21.5,0,0,0,3.48-1.61c.56-.32,1.1-.67,1.62-1l.78-.58.75-.62c-.22.24-.44.48-.67.71l-.72.66a17.76,17.76,0,0,1-1.57,1.17,17.21,17.21,0,0,1-3.52,1.74,19.34,19.34,0,0,1-3.8.93A20.41,20.41,0,0,1,243.29,237.91Z" style="fill:#fff"></path></g><path id="freepik--lamp-light--inject-58" d="M249.8,194a4.76,4.76,0,0,0-.09,2.43,10.46,10.46,0,0,1-1,7.49c-2.2,4.35-7.63,4.44-9.57,7-1.76,2.36-.45,4.38,2,5.07,3.86,1.1,10.7-.41,13-8.18,1.14-3.8.07-9.55-1.44-12.39C251.78,193.68,250.51,192.78,249.8,194Z" style="fill:#fff;opacity:0.5"></path><g id="freepik--Flame--inject-58"><path d="M246.5,208.23a4.66,4.66,0,1,1-9.31,0c0-5.31,4.65-9.89,4.65-9.89S246.5,203,246.5,208.23Z" style="fill:#f0997a"></path><path d="M244.71,209a2.87,2.87,0,0,1-5.73,0c0-3.26,2.86-6.08,2.86-6.08S244.71,205.81,244.71,209Z" style="fill:#fafafa"></path></g><path d="M232.33,214a5.63,5.63,0,0,1-1.84-.27,2.2,2.2,0,0,1-1.51-1.41.46.46,0,1,1,.87-.27,1.34,1.34,0,0,0,1,.82c2.16.76,7-.32,13.1-4.45s10-9.89,10.14-12.95a1.8,1.8,0,0,0-.53-1.58.45.45,0,0,1,.58-.7,2.74,2.74,0,0,1,.87,2.33c-.15,3.23-3.9,9.12-10.54,13.65C239.14,212.73,235,214,232.33,214Z" style="fill:#BA68C8"></path><path d="M232.33,214a5.63,5.63,0,0,1-1.84-.27,2.2,2.2,0,0,1-1.51-1.41.46.46,0,1,1,.87-.27,1.34,1.34,0,0,0,1,.82c2.16.76,7-.32,13.1-4.45s10-9.89,10.14-12.95a1.8,1.8,0,0,0-.53-1.58.45.45,0,0,1,.58-.7,2.74,2.74,0,0,1,.87,2.33c-.15,3.23-3.9,9.12-10.54,13.65C239.14,212.73,235,214,232.33,214Z" style="opacity:0.15"></path><path d="M241,210.2l.9.54c-4.08,2.36-7.35,3.22-9.54,3.22a5.63,5.63,0,0,1-1.84-.27,2.2,2.2,0,0,1-1.51-1.41.46.46,0,0,1,.3-.57.45.45,0,0,1,.57.3,1.36,1.36,0,0,0,1,.82C232.59,213.47,236.29,212.82,241,210.2Z" style="opacity:0.15"></path><path d="M251.42,214c-2.63,0-6.82-1.23-12.09-4.83-6.65-4.53-10.39-10.42-10.54-13.65a2.71,2.71,0,0,1,.86-2.33.46.46,0,0,1,.64.06.45.45,0,0,1-.06.64,1.86,1.86,0,0,0-.53,1.58c.14,3.06,4,8.74,10.14,12.95s10.95,5.21,13.11,4.45a1.34,1.34,0,0,0,.94-.82.45.45,0,0,1,.57-.3.46.46,0,0,1,.31.57,2.22,2.22,0,0,1-1.52,1.41A5.57,5.57,0,0,1,251.42,214Z" style="fill:#BA68C8"></path><path d="M251.42,214c-2.63,0-6.82-1.23-12.09-4.83-6.65-4.53-10.39-10.42-10.54-13.65a2.71,2.71,0,0,1,.86-2.33.46.46,0,0,1,.64.06.45.45,0,0,1-.06.64,1.86,1.86,0,0,0-.53,1.58c.14,3.06,4,8.74,10.14,12.95s10.95,5.21,13.11,4.45a1.34,1.34,0,0,0,.94-.82.45.45,0,0,1,.57-.3.46.46,0,0,1,.31.57,2.22,2.22,0,0,1-1.52,1.41A5.57,5.57,0,0,1,251.42,214Z" style="opacity:0.1"></path></g><g id="freepik--Thumb--inject-58"><path d="M252.59,172.48a.18.18,0,0,1-.1,0,.26.26,0,0,1-.14-.34,93.37,93.37,0,0,0,7.26-34.22c0-5.63-2.14-9.1-6.85-10.92a28.77,28.77,0,0,0-21.63,0c-4.71,1.82-6.89,5.29-6.86,10.92a93.59,93.59,0,0,0,7.27,34.22.26.26,0,0,1-.14.34.26.26,0,0,1-.35-.14,94,94,0,0,1-7.3-34.41c0-5.89,2.25-9.51,7.19-11.43a29.39,29.39,0,0,1,22,0c4.93,1.92,7.22,5.54,7.18,11.43a94,94,0,0,1-7.3,34.41A.27.27,0,0,1,252.59,172.48Z" style="fill:#e0e0e0"></path><path d="M236,128.26a9.14,9.14,0,0,0,2.88-5.14c.3-2,.49-4.16,1.12-4.26,1.05-.16,3.31,1.63,3.11,4.88-.19,3.09-1.2,6.8-1.19,7.69s1,2.88,1.83,4.39a8.4,8.4,0,0,1-1.67,9.49Z" style="fill:#ffa8a7"></path></g><g id="freepik--Chest--inject-58"><path id="freepik--chest--inject-58" d="M138.55,147.33c-12,4.34-18.26,6.79-20.6,8.95,0,0-.08,24.33,2.14,33.46,5,20.46,5.69,46.89,5.69,46.89s11.35,3.56,32.59,1.71a78,78,0,0,0,26.1-7.58s-1.44-25.83-3-44c-1.49-17.5-4.88-31.88-12.81-38.73-7-1.55-17.65-1.91-17.65-1.91Z" style="fill:#BA68C8"></path><path id="freepik--chest--inject-58" d="M138.55,147.33c-12,4.34-18.26,6.79-20.6,8.95,0,0-.08,24.33,2.14,33.46,5,20.46,5.69,46.89,5.69,46.89s11.35,3.56,32.59,1.71a78,78,0,0,0,26.1-7.58s-1.44-25.83-3-44c-1.49-17.5-4.88-31.88-12.81-38.73-7-1.55-17.65-1.91-17.65-1.91Z" style="opacity:0.30000000000000004"></path><path d="M181.47,186.73c-1.46-17.12-4.74-31.25-12.31-38.27,4.49,4.15,9.72,20.18,11.28,43.5.68,10.23,2.58,25.88,2.51,39.56l1.52-.76S183,204.93,181.47,186.73Z" style="fill:#BA68C8"></path><path d="M181.47,186.73c-1.46-17.12-4.74-31.25-12.31-38.27,4.49,4.15,9.72,20.18,11.28,43.5.68,10.23,2.58,25.88,2.51,39.56l1.52-.76S183,204.93,181.47,186.73Z" style="fill:#fff;opacity:0.6000000000000001"></path><g id="freepik--character--inject-58"><path d="M162.4,126.89,139,111.63l-9.88-4.44s-2.41-.19-3.93,3.23c-1.18,2.66-1.5,7,1.44,15.16a75.37,75.37,0,0,0,5,11.26C133,140,134.78,140,134.78,140l1.35-7.86,29.26-3.3Z" style="fill:#263238"></path><circle cx="159.65" cy="111.64" r="11.82" style="fill:#263238"></circle><path d="M135.36,123.75c-.9.61-1.83-1.32-3.56-2.26-1.46-.79-4.75-2.16-6.73,1.48-2.13,3.93,1.25,9.69,5.19,10,3.21.27,3.55-1.23,3.55-1.23l1.38,18.48c6.57,9.41,25.57,7.25,19.28-.81l-.75-7a32.55,32.55,0,0,0,6.9,0c3.73-.79,5.93-3.89,6.84-8,1.47-6.64,1.2-16.36-1.82-27.36-3.31-11.66-17.43-10.57-26-4.51S135.36,123.75,135.36,123.75Z" style="fill:#ffa8a7"></path><path d="M162.13,109a16.41,16.41,0,0,0,4.82-3,6.48,6.48,0,0,0,1.83-3,5,5,0,0,0-.56-3.92,3.65,3.65,0,0,0-3.76-.92A5,5,0,0,0,166,94.72a2.64,2.64,0,0,0-1.52-2.36,4.34,4.34,0,0,0-2.91-.22,12.5,12.5,0,0,0-2.74,1.11,5.86,5.86,0,0,0-.64-2.79A3.32,3.32,0,0,0,156,88.75c-1.64-.31-3.12.91-4.5,1.85a13.77,13.77,0,0,1-2.66,1.47c-3.15,1.23-6.56,1.63-9.84,2.46s-6.61,2.18-8.73,4.82a10,10,0,0,0-1.68,9.17c.22.69.53,1.36.81,2a34.71,34.71,0,0,1,1.84,5.81c.28,1.24,1.56,5.81,1.56,5.81a28.42,28.42,0,0,1,2.47,2.86,3.84,3.84,0,0,0,.84.82,1.18,1.18,0,0,0,1.12.11,1.16,1.16,0,0,0,.58-.75,3.45,3.45,0,0,0,.1-1,30.08,30.08,0,0,0-.13-3.43,7.32,7.32,0,0,1,0-3.39,10.59,10.59,0,0,1,.86-1.5,14.25,14.25,0,0,0,1.51-5.24c.39-2.63,2.76-1.73,4.53-1.26a31.12,31.12,0,0,0,11.58,1.13A19.78,19.78,0,0,0,162.13,109Z" style="fill:#263238"></path><path d="M153.72,142.4s-8.27-1.26-11.28-2.66a9.73,9.73,0,0,1-4.79-5.1,13.57,13.57,0,0,0,2.83,5.64C144.2,144,154,145.05,154,145.05Z" style="fill:#f28f8f"></path><path d="M151.29,122a1.69,1.69,0,1,1-1.88-1.55A1.72,1.72,0,0,1,151.29,122Z" style="fill:#263238"></path><path d="M154.8,133.88a1.69,1.69,0,1,1-1.88-1.55A1.72,1.72,0,0,1,154.8,133.88Z" style="fill:#b16668"></path><path d="M148.39,114.38l-3.14,3.09a2.31,2.31,0,0,1,0-3.2A2.15,2.15,0,0,1,148.39,114.38Z" style="fill:#263238"></path><path d="M164.92,115l-3.52-2.48a2.08,2.08,0,0,1,2.94-.52A2.2,2.2,0,0,1,164.92,115Z" style="fill:#263238"></path><path d="M163.92,120a1.69,1.69,0,1,1-1.88-1.56A1.72,1.72,0,0,1,163.92,120Z" style="fill:#263238"></path><polygon points="155.49 119.31 156.92 130.14 163.18 128.01 155.49 119.31" style="fill:#f28f8f"></polygon></g></g><g id="freepik--arm--inject-58"><path d="M207.25,189c1.53-1.55,1.36-4.09-2.05-2.65s-8.19,3.61-10.39,6.17a17.45,17.45,0,0,0-1.5,1.82A24.65,24.65,0,0,0,194,191a5.86,5.86,0,0,0-.65-3.27c-.23-.39-.69-.79-1.09-.57a.73.73,0,0,0-.32.35c-1,2.2-2,3.81-3,5.77a8.91,8.91,0,0,0-1.06,2.74c-.12.92-.21,1.84-.27,2.77-.23,4.2-1.15,8-3.77,9.65-5.13,3.26-30.93,2.33-36.49,2.33-3.09-7.58-9.89-30.38-10.6-32.88-1.22-4.33-7.15-19.36-20-19.72-2.62,3.14-5.52,10.21-4.88,17.47s10.46,35.13,14.47,43.17,5.74,9.42,8,10.73c3.78,2.18,13.64.9,18.49.46a156.92,156.92,0,0,0,35.82-7.46c4.13-1.19,7.31-2.78,8.44-4.76,1.84-3.22,2.71-8.52,3.73-11.44a28.4,28.4,0,0,1,5.83-9c1.44-1.47,1.8-4.3,1.08-5.38C209,190.42,208.38,188.52,207.25,189Z" style="fill:#ffa8a7"></path><path d="M147.29,210.76c-3.22-.18-10.34,3-11.88,6.19a11.11,11.11,0,0,1,4.58-6.31,13.89,13.89,0,0,1,6.42-2.18Z" style="fill:#f28f8f"></path><path d="M191.24,194.88a10.83,10.83,0,0,0-1,4.31,23.71,23.71,0,0,1,3.07-4.9A24.65,24.65,0,0,0,194,191a6.19,6.19,0,0,0-.47-2.92C193.91,190.11,192.22,193,191.24,194.88Z" style="fill:#f28f8f"></path><path d="M118.46,155.85s-7.38,3.69-7.59,12.27a53.93,53.93,0,0,0,2.39,17.62c3.51,11.52,8.23,23.71,8.23,23.71s14.5-.65,22.81-9.77c0,0-5.06-16.79-7.9-26.29C133.22,165.18,126.55,157.49,118.46,155.85Z" style="fill:#455a64"></path></g><g id="freepik--lights--inject-58"><path d="M126.57,208.75c5-1,12.56-3.39,17.73-9.07,0,0-5.06-16.79-7.9-26.29A33.3,33.3,0,0,0,128.12,161c3.2,3.45,6.31,10.1,8.18,16.43s6.12,21.74,6.12,21.74S139.6,203.7,126.57,208.75Z" style="fill:#BA68C8"></path><path d="M201.09,204.37a41.85,41.85,0,0,0-2.41,9.56c.86-2.72,1.47-5.68,2.14-7.6a28.4,28.4,0,0,1,5.83-9c1.44-1.47,1.8-4.3,1.08-5.38,1.3-1.58.65-3.48-.48-3.05,1.08-1.09,1.3-2.67.16-3,.53.36.61,1.92-1,3.17,0,0,1.61.17,1.42,1.45a2.42,2.42,0,0,1-1.25,1.92s1-.08,1,1.31c0,.9-.29,1.66-1.84,3.43A21.07,21.07,0,0,0,201.09,204.37Z" style="fill:#BA68C8"></path><path d="M193.55,190.23a27,27,0,0,1-.91,4.93l.67-.87h0A24.65,24.65,0,0,0,194,191a5.86,5.86,0,0,0-.65-3.27c-.23-.39-.69-.79-1.08-.57C192.78,187.25,193.51,188.81,193.55,190.23Z" style="fill:#BA68C8"></path><path d="M248.5,114.05a2.26,2.26,0,0,1-.17,2.17c-.64,1.16-3.22,3-3.6,3.28l.37-.24h0l.35-.23h0l.41-.27h0l.21-.13,0,0,.17-.11,0,0,.19-.12.07,0,.14-.09.1-.06L247,118l.11-.07.1-.07.13-.08,0,0,.17-.11A3.41,3.41,0,0,0,249,116a2.8,2.8,0,0,0,.15-.67,3.21,3.21,0,0,0-.32-1.72,48.79,48.79,0,0,1-4.94,1.34h0l3.37-.53Z" style="fill:#BA68C8"></path><path d="M246.23,130.82l1.28-4.45a33.31,33.31,0,0,1-1.63,3.78c-.36.42-1.25.19-1.8-.55a6.32,6.32,0,0,1-.79-1.49l-.08.37a4.63,4.63,0,0,0,1.52,2.47C245.75,131.62,246.1,131.18,246.23,130.82Z" style="fill:#BA68C8"></path><path d="M244.86,133.36a3,3,0,0,0,1.46,2.69c1.25.76,1.42-.63,1.59-1.35,0,0-.33,1-.74,1.06S245.42,135.28,244.86,133.36Z" style="fill:#BA68C8"></path><path d="M250.37,131.83a2.4,2.4,0,0,0-.39-.49,3.51,3.51,0,0,1,.3,2.41,7.28,7.28,0,0,1-1.14,3.29,1.21,1.21,0,0,1-1.64-.13c.15.43.32.9,1.09.89a1.28,1.28,0,0,0,1.1-.71C250.39,135,250.86,132.64,250.37,131.83Z" style="fill:#BA68C8"></path><path d="M244.86,147.42c-2.37.58-2.25,2-3.51,3.75-1.74,2.37-18.4,25.31-18.54,25.51h0l.66-.7.53-.63c3.11-3.89,19.38-25.24,19.38-25.24,2-1.26,4.82-3.33,5.41-5.37a12.3,12.3,0,0,0,.39-2.47C249.05,143.46,248,146.66,244.86,147.42Z" style="fill:#BA68C8"></path><path d="M183.42,176.68l19.47,2.43s-1.26-5.87,2.28-15.51a31,31,0,0,0-4,14.24Z" style="fill:#BA68C8"></path><path d="M165.39,138.09c-2.26,4.09-6,4.24-10.77,4.38a27.51,27.51,0,0,0,6-.1c3.73-.79,5.93-3.89,6.84-8,1.1-5,1.15-9.2.39-16.36C168.32,125.63,167.46,134.36,165.39,138.09Z" style="fill:#BA68C8"></path><g style="opacity:0.6000000000000001"><path d="M126.57,208.75c5-1,12.56-3.39,17.73-9.07,0,0-5.06-16.79-7.9-26.29A33.3,33.3,0,0,0,128.12,161c3.2,3.45,6.31,10.1,8.18,16.43s6.12,21.74,6.12,21.74S139.6,203.7,126.57,208.75Z" style="fill:#fff"></path><path d="M201.09,204.37a41.85,41.85,0,0,0-2.41,9.56c.86-2.72,1.47-5.68,2.14-7.6a28.4,28.4,0,0,1,5.83-9c1.44-1.47,1.8-4.3,1.08-5.38,1.3-1.58.65-3.48-.48-3.05,1.08-1.09,1.3-2.67.16-3,.53.36.61,1.92-1,3.17,0,0,1.61.17,1.42,1.45a2.42,2.42,0,0,1-1.25,1.92s1-.08,1,1.31c0,.9-.29,1.66-1.84,3.43A21.07,21.07,0,0,0,201.09,204.37Z" style="fill:#fff"></path><path d="M193.55,190.23a27,27,0,0,1-.91,4.93l.67-.87h0A24.65,24.65,0,0,0,194,191a5.86,5.86,0,0,0-.65-3.27c-.23-.39-.69-.79-1.08-.57C192.78,187.25,193.51,188.81,193.55,190.23Z" style="fill:#fff"></path><path d="M248.5,114.05a2.26,2.26,0,0,1-.17,2.17c-.64,1.16-3.22,3-3.6,3.28l.37-.24h0l.35-.23h0l.41-.27h0l.21-.13,0,0,.17-.11,0,0,.19-.12.07,0,.14-.09.1-.06L247,118l.11-.07.1-.07.13-.08,0,0,.17-.11A3.41,3.41,0,0,0,249,116a2.8,2.8,0,0,0,.15-.67,3.21,3.21,0,0,0-.32-1.72,48.79,48.79,0,0,1-4.94,1.34h0l3.37-.53Z" style="fill:#fff"></path><path d="M246.23,130.82l1.28-4.45a33.31,33.31,0,0,1-1.63,3.78c-.36.42-1.25.19-1.8-.55a6.32,6.32,0,0,1-.79-1.49l-.08.37a4.63,4.63,0,0,0,1.52,2.47C245.75,131.62,246.1,131.18,246.23,130.82Z" style="fill:#fff"></path><path d="M244.86,133.36a3,3,0,0,0,1.46,2.69c1.25.76,1.42-.63,1.59-1.35,0,0-.33,1-.74,1.06S245.42,135.28,244.86,133.36Z" style="fill:#fff"></path><path d="M250.37,131.83a2.4,2.4,0,0,0-.39-.49,3.51,3.51,0,0,1,.3,2.41,7.28,7.28,0,0,1-1.14,3.29,1.21,1.21,0,0,1-1.64-.13c.15.43.32.9,1.09.89a1.28,1.28,0,0,0,1.1-.71C250.39,135,250.86,132.64,250.37,131.83Z" style="fill:#fff"></path><path d="M244.86,147.42c-2.37.58-2.25,2-3.51,3.75-1.74,2.37-18.4,25.31-18.54,25.51h0l.66-.7.53-.63c3.11-3.89,19.38-25.24,19.38-25.24,2-1.26,4.82-3.33,5.41-5.37a12.3,12.3,0,0,0,.39-2.47C249.05,143.46,248,146.66,244.86,147.42Z" style="fill:#fff"></path><path d="M183.42,176.68l19.47,2.43s-1.26-5.87,2.28-15.51a31,31,0,0,0-4,14.24Z" style="fill:#fff"></path><path d="M165.39,138.09c-2.26,4.09-6,4.24-10.77,4.38a27.51,27.51,0,0,0,6-.1c3.73-.79,5.93-3.89,6.84-8,1.1-5,1.15-9.2.39-16.36C168.32,125.63,167.46,134.36,165.39,138.09Z" style="fill:#fff"></path></g></g></g></g></g><g id="freepik--Fireflies--inject-58"><g id="freepik--Firefly--inject-58"><path d="M273.51,59.46a4.3,4.3,0,1,1-5.61-2.37A4.3,4.3,0,0,1,273.51,59.46Z" style="fill:#BA68C8;opacity:0.1"></path><circle cx="269.52" cy="61.08" r="8.44" transform="translate(49.92 228.85) rotate(-50.15)" style="fill:#BA68C8;opacity:0.1"></circle><path d="M271,61.82a1.12,1.12,0,1,1-2.07.84,2.19,2.19,0,0,1,.37-2.06A2.18,2.18,0,0,1,271,61.82Z" style="fill:#BA68C8"></path><path d="M269.85,60.73l-.8.33a2,2,0,0,0-.09,1.6h0a.43.43,0,0,0,0,.07.31.31,0,0,0,.05.1h0a1.13,1.13,0,0,0,1.37.46,1.38,1.38,0,0,0,.24-.14.86.86,0,0,1-1.2-.84h0a1.51,1.51,0,0,0,.16-1,1.59,1.59,0,0,0,1.47.7,1.06,1.06,0,0,0-.06-.19A2,2,0,0,0,269.85,60.73Z" style="opacity:0.1"></path><path d="M269.92,60.14a.72.72,0,0,1-1.34.55.74.74,0,0,1,.4-.95A.72.72,0,0,1,269.92,60.14Z"></path><path d="M267.19,63a1.78,1.78,0,0,0,2.33-1.91A1.79,1.79,0,0,0,267.19,63Z" style="fill:#e0e0e0"></path><path d="M266.51,61.31a1.79,1.79,0,0,0,3-.23,1.58,1.58,0,0,0-1.56-.71A1.61,1.61,0,0,0,266.51,61.31Z" style="fill:#fafafa"></path><path d="M272.53,60.82a1.79,1.79,0,0,1-3,.26,1.62,1.62,0,0,1,1.44-1A1.6,1.6,0,0,1,272.53,60.82Z" style="fill:#e0e0e0"></path><path d="M271.84,59.14a1.79,1.79,0,0,1-2.32,1.94,1.8,1.8,0,0,1,2.32-1.94Z" style="fill:#fafafa"></path></g><g id="freepik--firefly--inject-58"><path d="M419.27,175.65a6.36,6.36,0,1,1-8.86-1.54A6.36,6.36,0,0,1,419.27,175.65Z" style="fill:#BA68C8;opacity:0.1"></path><path d="M424.27,172.13a12.47,12.47,0,1,1-17.38-3A12.48,12.48,0,0,1,424.27,172.13Z" style="fill:#BA68C8;opacity:0.1"></path><path d="M416.48,179.87a1.65,1.65,0,1,1-2.7,1.9,3.23,3.23,0,0,1-.16-3.09A3.24,3.24,0,0,1,416.48,179.87Z" style="fill:#BA68C8"></path><path d="M414.42,178.7l-1.05.74a3,3,0,0,0,.41,2.33h0l.08.09.11.13h0a1.67,1.67,0,0,0,2.12.2,1.61,1.61,0,0,0,.3-.28,1.27,1.27,0,0,1-2-.81h0a2.24,2.24,0,0,0-.12-1.5,2.36,2.36,0,0,0,2.35.52,1.57,1.57,0,0,0-.14-.25A2.88,2.88,0,0,0,414.42,178.7Z" style="opacity:0.1"></path><path d="M414.33,177.82a1.07,1.07,0,0,1-1.75,1.23,1.06,1.06,0,0,1,.26-1.48A1.07,1.07,0,0,1,414.33,177.82Z"></path><path d="M411.34,182.84a2.64,2.64,0,1,0,.39-2.52A2.37,2.37,0,0,0,411.34,182.84Z" style="fill:#e0e0e0"></path><path d="M409.81,180.64a2.64,2.64,0,0,0,4.26-1.33,2.64,2.64,0,0,0-4.26,1.33Z" style="fill:#fafafa"></path><path d="M418.31,177.93a2.64,2.64,0,0,1-4.24,1.38,2.65,2.65,0,0,1,4.24-1.38Z" style="fill:#e0e0e0"></path><path d="M416.75,175.75a2.64,2.64,0,0,1-2.68,3.56,2.64,2.64,0,0,1,2.68-3.56Z" style="fill:#fafafa"></path></g><g id="freepik--firefly--inject-58"><path d="M334.51,195.1a3.1,3.1,0,1,1-4.22-1.17A3.08,3.08,0,0,1,334.51,195.1Z" style="fill:#BA68C8;opacity:0.1"></path><path d="M337.1,193.63a6.07,6.07,0,1,1-8.28-2.29A6.07,6.07,0,0,1,337.1,193.63Z" style="fill:#BA68C8;opacity:0.1"></path><path d="M333,197a.8.8,0,1,1-1.4.79,1.59,1.59,0,0,1,.07-1.5A1.56,1.56,0,0,1,333,197Z" style="fill:#BA68C8"></path><path d="M332,196.35l-.54.3a1.39,1.39,0,0,0,.08,1.15h0l0,0,0,.07h0a.8.8,0,0,0,1,.19.61.61,0,0,0,.16-.12.61.61,0,0,1-.93-.48h0a1,1,0,0,0,0-.73,1.16,1.16,0,0,0,1.12.36A.75.75,0,0,0,333,197,1.42,1.42,0,0,0,332,196.35Z" style="opacity:0.1"></path><path d="M332,195.92a.51.51,0,0,1-.19.71.52.52,0,1,1-.51-.91A.51.51,0,0,1,332,195.92Z"></path><path d="M330.33,198.21a1.17,1.17,0,0,0,1.18-.38,1.16,1.16,0,0,0,.31-1.2,1.15,1.15,0,0,0-1.18.38A1.16,1.16,0,0,0,330.33,198.21Z" style="fill:#e0e0e0"></path><path d="M329.69,197.07a1.28,1.28,0,1,0,.94-.81A1.16,1.16,0,0,0,329.69,197.07Z" style="fill:#fafafa"></path><path d="M333.94,196.16a1.16,1.16,0,0,1-.93.82,1.17,1.17,0,0,1-1.19-.35,1.28,1.28,0,0,1,2.12-.47Z" style="fill:#e0e0e0"></path><path d="M333.29,195a1.29,1.29,0,0,1-1.47,1.6,1.28,1.28,0,0,1,1.47-1.6Z" style="fill:#fafafa"></path></g><g id="freepik--firefly--inject-58"><path d="M65.23,288.56A3.1,3.1,0,1,1,61,287.39,3.1,3.1,0,0,1,65.23,288.56Z" style="fill:#BA68C8;opacity:0.1"></path><path d="M67.82,287.09a6.07,6.07,0,1,1-8.28-2.29A6.08,6.08,0,0,1,67.82,287.09Z" style="fill:#BA68C8;opacity:0.1"></path><path d="M63.68,290.47a.8.8,0,1,1-1.4.79,1.56,1.56,0,0,1,.07-1.5A1.56,1.56,0,0,1,63.68,290.47Z" style="fill:#BA68C8"></path><path d="M62.74,289.8l-.55.31a1.44,1.44,0,0,0,.09,1.15h0l0,.05,0,.07h0a.81.81,0,0,0,1,.19.61.61,0,0,0,.16-.12.61.61,0,0,1-.93-.48h0a1.05,1.05,0,0,0,0-.74,1.13,1.13,0,0,0,1.11.37.5.5,0,0,0,0-.13A1.44,1.44,0,0,0,62.74,289.8Z" style="opacity:0.1"></path><path d="M62.73,289.38a.52.52,0,0,1-.9.51.52.52,0,1,1,.9-.51Z"></path><path d="M61.05,291.66a1.15,1.15,0,0,0,1.18-.38,1.16,1.16,0,0,0,.31-1.2,1.17,1.17,0,0,0-1.18.38A1.14,1.14,0,0,0,61.05,291.66Z" style="fill:#e0e0e0"></path><path d="M60.41,290.52a1.14,1.14,0,0,0,1.18.37,1.17,1.17,0,0,0,.95-.81,1.29,1.29,0,0,0-2.13.44Z" style="fill:#fafafa"></path><path d="M64.66,289.62a1.14,1.14,0,0,1-.94.81.7.7,0,1,1-.25-1.16A1.15,1.15,0,0,1,64.66,289.62Z" style="fill:#e0e0e0"></path><path d="M64,288.49a1.13,1.13,0,0,1-.29,1.2,1.15,1.15,0,0,1-1.17.39,1.13,1.13,0,0,1,.29-1.2A1.15,1.15,0,0,1,64,288.49Z" style="fill:#fafafa"></path></g><g id="freepik--firefly--inject-58"><path d="M392.33,249.43a3.1,3.1,0,1,1-3.06-3.13A3.09,3.09,0,0,1,392.33,249.43Z" style="fill:#BA68C8;opacity:0.1"></path><path d="M395.31,249.46a6.08,6.08,0,1,1-6-6.14A6.09,6.09,0,0,1,395.31,249.46Z" style="fill:#BA68C8;opacity:0.1"></path><path d="M390,250.3a.81.81,0,1,1-1.61,0,.89.89,0,1,1,1.61,0Z" style="fill:#BA68C8"></path><path d="M389.55,249.25h-.63a1.42,1.42,0,0,0-.5,1h0a.09.09,0,0,0,0,.05v.08h0a.82.82,0,0,0,.79.69.63.63,0,0,0,.19,0,.62.62,0,0,1-.56-.89h0a1,1,0,0,0,.38-.62,1.15,1.15,0,0,0,.78.87.59.59,0,0,0,0-.14A1.47,1.47,0,0,0,389.55,249.25Z" style="opacity:0.1"></path><path d="M389.76,248.88a.52.52,0,1,1-.52-.52A.52.52,0,0,1,389.76,248.88Z"></path><path d="M387.15,250a1.29,1.29,0,1,0,.87-.88A1.14,1.14,0,0,0,387.15,250Z" style="fill:#e0e0e0"></path><path d="M387.17,248.71a1.28,1.28,0,1,0,1.22-.23A1.15,1.15,0,0,0,387.17,248.71Z" style="fill:#fafafa"></path><path d="M391.3,250.06a1.3,1.3,0,0,1-2.07-.67,1.17,1.17,0,0,1,1.22-.23A1.15,1.15,0,0,1,391.3,250.06Z" style="fill:#e0e0e0"></path><path d="M391.31,248.75a1.16,1.16,0,0,1-.86.89,1.15,1.15,0,0,1-1.22-.25,1.29,1.29,0,0,1,2.08-.64Z" style="fill:#fafafa"></path></g><g id="freepik--firefly--inject-58"><path d="M102.92,128.33a5.73,5.73,0,1,1-.69-8.08A5.73,5.73,0,0,1,102.92,128.33Z" style="fill:#BA68C8;opacity:0.1"></path><path d="M107.13,131.88a11.24,11.24,0,1,1-1.35-15.83A11.25,11.25,0,0,1,107.13,131.88Z" style="fill:#BA68C8;opacity:0.1"></path><path d="M98.6,126.86A1.48,1.48,0,1,1,96.33,125,2.91,2.91,0,0,1,99,124.1,2.91,2.91,0,0,1,98.6,126.86Z" style="fill:#BA68C8"></path><path d="M99.15,124.8l-.88-.74a2.6,2.6,0,0,0-1.94.89h0l-.06.08-.09.13h0a1.49,1.49,0,0,0,.32,1.89,1.27,1.27,0,0,0,.31.2,1.14,1.14,0,0,1,.24-1.93h0a2,2,0,0,0,1.28-.44,2.1,2.1,0,0,0,.09,2.16,1.53,1.53,0,0,0,.18-.18A2.62,2.62,0,0,0,99.15,124.8Z" style="opacity:0.1"></path><path d="M99.89,124.52a1,1,0,0,1-1.47-1.24,1,1,0,1,1,1.47,1.24Z"></path><path d="M94.84,123.06a2.38,2.38,0,0,0,3.7,1.57,2.38,2.38,0,0,0-3.7-1.57Z" style="fill:#e0e0e0"></path><path d="M96.41,121.23a2.11,2.11,0,0,0,.13,2.28,2.13,2.13,0,0,0,2,1.12,2.37,2.37,0,0,0-2.13-3.4Z" style="fill:#fafafa"></path><path d="M100.71,128a2.37,2.37,0,0,1-2.17-3.38,2.14,2.14,0,0,1,2,1.1A2.1,2.1,0,0,1,100.71,128Z" style="fill:#e0e0e0"></path><path d="M102.26,126.16a2.38,2.38,0,0,1-3.72-1.53,2.38,2.38,0,0,1,3.72,1.53Z" style="fill:#fafafa"></path></g><g id="freepik--firefly--inject-58"><path d="M102.5,251.92a5.73,5.73,0,1,1-.69-8.08A5.74,5.74,0,0,1,102.5,251.92Z" style="fill:#BA68C8;opacity:0.1"></path><circle cx="98.12" cy="248.22" r="11.24" style="fill:#BA68C8;opacity:0.1"></circle><path d="M98.18,250.45a1.49,1.49,0,1,1-2.27-1.92,2.91,2.91,0,0,1,2.66-.85A2.93,2.93,0,0,1,98.18,250.45Z" style="fill:#BA68C8"></path><path d="M98.73,248.39l-.88-.75a2.64,2.64,0,0,0-1.94.89h0l-.06.09-.09.12h0a1.5,1.5,0,0,0,.32,1.9,1.23,1.23,0,0,0,.31.19,1.13,1.13,0,0,1,.24-1.92h0a2,2,0,0,0,1.28-.45,2.12,2.12,0,0,0,.09,2.17c.06-.06.12-.11.18-.18A2.64,2.64,0,0,0,98.73,248.39Z" style="opacity:0.1"></path><path d="M99.47,248.11a1,1,0,1,1-.11-1.36A1,1,0,0,1,99.47,248.11Z"></path><path d="M94.42,246.65a2.38,2.38,0,1,0,2.28-.23A2.13,2.13,0,0,0,94.42,246.65Z" style="fill:#e0e0e0"></path><path d="M96,244.81a2.38,2.38,0,0,0,2.13,3.41A2.38,2.38,0,0,0,96,244.81Z" style="fill:#fafafa"></path><path d="M100.29,251.6a2.37,2.37,0,0,1-2.17-3.38,2.38,2.38,0,0,1,2.17,3.38Z" style="fill:#e0e0e0"></path><path d="M101.84,249.74a2.38,2.38,0,0,1-3.72-1.52,2.38,2.38,0,0,1,3.72,1.52Z" style="fill:#fafafa"></path></g><g id="freepik--firefly--inject-58"><path d="M305,133.12a6.09,6.09,0,1,1-3.43-7.9A6.09,6.09,0,0,1,305,133.12Z" style="fill:#BA68C8;opacity:0.1"></path><circle cx="299.32" cy="130.89" r="11.95" transform="translate(65.86 359.41) rotate(-68.01)" style="fill:#BA68C8;opacity:0.1"></circle><path d="M300.15,133.11A1.59,1.59,0,1,1,297.2,132a1.76,1.76,0,1,1,2.95,1.16Z" style="fill:#BA68C8"></path><path d="M300,130.85l-1.14-.46A2.8,2.8,0,0,0,297.2,132h0l0,.11c0,.05,0,.1,0,.15h0a1.58,1.58,0,0,0,1,1.81,1.62,1.62,0,0,0,.38.09,1.22,1.22,0,0,1-.41-2h0a2.1,2.1,0,0,0,1.14-.88,2.28,2.28,0,0,0,.82,2.16,2,2,0,0,0,.13-.25A2.8,2.8,0,0,0,300,130.85Z" style="opacity:0.1"></path><path d="M300.65,130.31a1,1,0,1,1-.58-1.33A1,1,0,0,1,300.65,130.31Z"></path><path d="M295.06,130.56a2.54,2.54,0,0,0,4.26.33,2.53,2.53,0,0,0-4.26-.33Z" style="fill:#e0e0e0"></path><path d="M296,128.17a2.29,2.29,0,0,0,.91,2.27,2.25,2.25,0,0,0,2.39.45,2.27,2.27,0,0,0-.9-2.27A2.29,2.29,0,0,0,296,128.17Z" style="fill:#fafafa"></path><path d="M302.66,133.56a2.54,2.54,0,0,1-3.34-2.67,2.52,2.52,0,0,1,3.34,2.67Z" style="fill:#e0e0e0"></path><path d="M303.59,131.16a2.27,2.27,0,0,1-2.21,1,2.29,2.29,0,0,1-2.06-1.31,2.29,2.29,0,0,1,2.21-1A2.26,2.26,0,0,1,303.59,131.16Z" style="fill:#fafafa"></path></g><g id="freepik--firefly--inject-58"><path d="M62.51,187.08a3.71,3.71,0,1,1-5-1.41A3.7,3.7,0,0,1,62.51,187.08Z" style="fill:#BA68C8;opacity:0.1"></path><circle cx="59.28" cy="188.9" r="7.26" transform="translate(-138.6 195.16) rotate(-74.39)" style="fill:#BA68C8;opacity:0.1"></circle><path d="M60.64,189.36a1,1,0,0,1-.36,1.32,1,1,0,0,1-1.31-.37,1.89,1.89,0,0,1,.09-1.81A1.88,1.88,0,0,1,60.64,189.36Z" style="fill:#BA68C8"></path><path d="M59.52,188.56l-.65.37a1.7,1.7,0,0,0,.1,1.38h0l0,.05a.24.24,0,0,0,.06.08h0a1,1,0,0,0,1.21.24.94.94,0,0,0,.19-.14.74.74,0,0,1-1.11-.59h0a1.28,1.28,0,0,0,0-.87,1.35,1.35,0,0,0,1.33.43,1,1,0,0,0-.07-.15A1.72,1.72,0,0,0,59.52,188.56Z" style="opacity:0.1"></path><path d="M59.52,188.05a.63.63,0,0,1-.24.85.62.62,0,0,1-.85-.24.62.62,0,0,1,1.09-.61Z"></path><path d="M57.49,190.78a1.54,1.54,0,0,0,1.79-1.88,1.36,1.36,0,0,0-1.41.45A1.37,1.37,0,0,0,57.49,190.78Z" style="fill:#e0e0e0"></path><path d="M56.74,189.42a1.53,1.53,0,0,0,2.54-.52,1.53,1.53,0,0,0-2.54.52Z" style="fill:#fafafa"></path><path d="M61.82,188.35a1.53,1.53,0,1,1-1.42-.43A1.37,1.37,0,0,1,61.82,188.35Z" style="fill:#e0e0e0"></path><path d="M61,187a1.54,1.54,0,0,1-1.76,1.91A1.54,1.54,0,0,1,61,187Z" style="fill:#fafafa"></path></g><g id="freepik--firefly--inject-58"><path d="M201.88,59.84a2.65,2.65,0,1,1-3.71-.55A2.66,2.66,0,0,1,201.88,59.84Z" style="fill:#BA68C8;opacity:0.1"></path><circle cx="199.75" cy="61.42" r="5.2" style="fill:#BA68C8;opacity:0.1"></circle><path d="M200.76,61.63a.69.69,0,0,1-.14,1,.71.71,0,0,1-1-.15,1.35,1.35,0,0,1-.09-1.29A1.35,1.35,0,0,1,200.76,61.63Z" style="fill:#BA68C8"></path><path d="M199.89,61.16l-.43.32a1.25,1.25,0,0,0,.19,1h0l0,0,0,.06h0a.71.71,0,0,0,.89.06.68.68,0,0,0,.12-.12.53.53,0,0,1-.84-.32h0a1,1,0,0,0-.06-.62,1,1,0,0,0,1,.19l-.06-.1A1.21,1.21,0,0,0,199.89,61.16Z" style="opacity:0.1"></path><path d="M199.84,60.8a.44.44,0,1,1-.62-.09A.44.44,0,0,1,199.84,60.8Z"></path><path d="M198.65,62.92a1.11,1.11,0,1,0,.14-1.05A1,1,0,0,0,198.65,62.92Z" style="fill:#e0e0e0"></path><path d="M198,62a1,1,0,0,0,1,.18,1,1,0,0,0,.72-.78A1.09,1.09,0,0,0,198,62Z" style="fill:#fafafa"></path><path d="M201.5,60.8a1,1,0,0,1-.71.79,1,1,0,0,1-1-.17,1.1,1.1,0,0,1,1.75-.62Z" style="fill:#e0e0e0"></path><path d="M200.83,59.91a1.11,1.11,0,0,1-1.08,1.51,1.1,1.1,0,0,1,1.08-1.51Z" style="fill:#fafafa"></path></g><g id="freepik--firefly--inject-58"><path d="M212.58,117.75a4.49,4.49,0,1,1-1.12-6.25A4.5,4.5,0,0,1,212.58,117.75Z" style="fill:#BA68C8;opacity:0.1"></path><circle cx="208.89" cy="115.19" r="8.81" transform="translate(-17.09 38.81) rotate(-10.2)" style="fill:#BA68C8;opacity:0.1"></circle><path d="M209.1,116.93a1.17,1.17,0,1,1-1.91-1.34,2.26,2.26,0,0,1,2-.85A2.3,2.3,0,0,1,209.1,116.93Z" style="fill:#BA68C8"></path><path d="M209.38,115.27l-.74-.51a2,2,0,0,0-1.45.83h0a.3.3,0,0,0,0,.08l-.06.1h0a1.17,1.17,0,0,0,.38,1.46l.26.13a.9.9,0,0,1,.05-1.53h0a1.57,1.57,0,0,0,1-.44,1.66,1.66,0,0,0,.22,1.69l.13-.15A2,2,0,0,0,209.38,115.27Z" style="opacity:0.1"></path><path d="M209.94,115a.75.75,0,1,1-.19-1A.76.76,0,0,1,209.94,115Z"></path><path d="M205.89,114.23a1.86,1.86,0,0,0,3,1,1.68,1.68,0,0,0-1.24-1.31A1.66,1.66,0,0,0,205.89,114.23Z" style="fill:#e0e0e0"></path><path d="M207,112.68a1.87,1.87,0,0,0,1.91,2.51,1.87,1.87,0,0,0-1.91-2.51Z" style="fill:#fafafa"></path><path d="M210.83,117.67a1.67,1.67,0,0,1-1.65-.71,1.65,1.65,0,0,1-.29-1.77,1.86,1.86,0,0,1,1.94,2.48Z" style="fill:#e0e0e0"></path><path d="M211.9,116.11a1.86,1.86,0,0,1-3-.92,1.86,1.86,0,0,1,3,.92Z" style="fill:#fafafa"></path></g></g></svg>